<?xml version="1.0" encoding="utf-8"?>
<!-- Generator: Adobe Illustrator 19.0.0, SVG Export Plug-In . SVG Version: 6.00 Build 0)  -->
<svg version="1.1" id="Layer_1" xmlns="http://www.w3.org/2000/svg" xmlns:xlink="http://www.w3.org/1999/xlink" x="0px" y="0px"
	 viewBox="-216 373 179 48" style="enable-background:new -216 373 179 48;" xml:space="preserve">
<style type="text/css">
	.st0{fill:#1B181C;}
	.st1{fill:#E11F26;}
	.st2{fill:#1D1D1B;}
	.st3{display:none;}
	.st4{display:inline;}
	.st5{fill:#FFFFFF;}
</style>
<path class="st0" d="M-204.6,406.3h-6.8l6.4-26h6.8L-204.6,406.3z"/>
<path class="st0" d="M-193.5,386h-5.1l1.4-5.7h16.9l-1.4,5.7h-4.9l-5,20.3h-6.8L-193.5,386L-193.5,386z"/>
<path class="st1" d="M-182.7,406.3h-7l12.9-26h7.7l0.1,26h-7l0.4-4.4h-5.3L-182.7,406.3L-182.7,406.3z M-178.7,396.6h3.6l0.8-10.5
	L-178.7,396.6L-178.7,396.6z"/>
<path class="st1" d="M-149,393c0,0.3-0.1,0.6-0.2,1h-5.9l0.1-0.8c0-0.2,0.1-0.4,0.1-0.7c0.1-0.5,0.1-0.9,0.1-1.1
	c0-0.1,0-0.3-0.1-0.5c-0.1-0.3-0.2-0.5-0.4-0.6c-0.2-0.2-0.4-0.2-0.7-0.2s-0.6,0.1-0.9,0.3c-0.5,0.3-1,0.8-1.3,1.6s-0.8,2.3-1.4,4.6
	c-0.3,1.2-0.5,2.1-0.6,2.7s-0.1,1.2-0.1,1.9c0,0.3,0.2,0.6,0.4,0.8s0.5,0.3,0.8,0.3s0.6-0.1,0.9-0.2c0.8-0.4,1.4-1.4,1.8-2.9l0.3-1
	l0.1-0.3h5.9c-0.2,0.7-0.3,1.2-0.5,1.7c-0.7,2.1-1.6,3.6-2.8,4.7s-2.7,1.8-4.5,2c-1,0.1-1.9,0.2-2.8,0.2c-2,0-3.5-0.4-4.5-1.3
	s-1.5-2.3-1.5-4.1c0-1.2,0.2-2.7,0.6-4.5c0.5-1.8,1-3.4,1.6-4.6s1.2-2.3,2-3.1c0.7-0.8,1.6-1.5,2.5-1.9s1.9-0.7,3-0.9
	c1.1-0.1,2-0.2,2.7-0.2c2,0,3.4,0.4,4.3,1.1c0.9,0.8,1.3,2,1.3,3.6C-148.7,391.1-148.8,391.9-149,393L-149,393z"/>
<path class="st1" d="M-141.1,391.9c0,0-0.1,0.1-0.1,0.3c-0.1,0.2-0.1,0.4-0.1,0.5h-6c0.3-1.2,0.7-2.3,1.4-3.2s1.6-1.7,2.7-2.2
	c1.1-0.6,2.3-0.9,3.6-1c0.8-0.1,1.5-0.1,2.1-0.1c2,0,3.5,0.3,4.4,1c0.9,0.6,1.4,1.6,1.4,3c0,0.7-0.1,1.4-0.3,2.2l-2.8,11l-0.1,0.5
	l-0.1,0.5c0,0.5-0.1,1.1-0.1,1.9h-6.1v-0.7l0.1-0.5l0.1-0.6v-0.3c-0.2,0.4-0.6,0.7-0.9,1c-0.9,0.8-2,1.3-3.2,1.4
	c-0.5,0.1-0.9,0.1-1.3,0.1c-1.3,0-2.2-0.3-2.9-1c-0.6-0.7-1-1.8-1-3.2c0-0.5,0.1-1,0.3-1.7c0.3-1.1,0.6-2,1-2.7s0.9-1.2,1.5-1.6
	s1.4-0.9,2.5-1.2c0.2-0.1,0.4-0.1,0.5-0.2c0.2-0.1,0.3-0.1,0.5-0.1l3.9-0.9c0.7-0.2,1.2-0.4,1.4-0.6c0.3-0.3,0.5-0.7,0.6-1.2
	c0.1-0.3,0.1-0.5,0.1-0.8c0-0.8-0.5-1.2-1.6-1.2C-140.2,390.2-140.8,390.8-141.1,391.9L-141.1,391.9z M-139,396.7l-2.3,0.9
	c-0.1,0-0.1,0.1-0.1,0.1s-0.1,0-0.1,0.1c-0.6,0.3-1,0.6-1.3,1c-0.3,0.3-0.4,0.8-0.6,1.4c-0.1,0.2-0.1,0.4-0.1,0.7
	c0,0.5,0.1,0.8,0.3,1.1s0.6,0.4,1,0.4c0.2,0,0.4,0,0.5-0.1c1-0.3,1.8-1.4,2.2-3.3L-139,396.7L-139,396.7z"/>
<path class="st1" d="M-126.1,387.2c1-0.7,1.9-1,2.7-1c0.7,0,1.4,0.2,1.9,0.5s1.4,1,2.7,1.9l2.1-8.3h6.4l-6.4,26h-6.2l0.5-2.2
	c-0.2,0.3-0.3,0.5-0.5,0.7c-0.9,1-2,1.7-3.3,1.9c-0.5,0.1-0.9,0.1-1.3,0.1c-1.3,0-2.3-0.4-3.1-1.3c-0.7-0.9-1-2.2-1-3.9
	c0-1,0.2-2.4,0.5-4c0.4-1.7,0.7-3.1,1.1-4.2s0.7-2.1,1.1-2.9c0.4-0.8,0.8-1.4,1.2-1.9C-127.2,388-126.7,387.6-126.1,387.2
	L-126.1,387.2z M-124.9,400.6c0.2,0.8,0.5,1.2,1,1.2c0.2,0,0.4-0.1,0.8-0.2c0.4-0.2,0.8-0.6,1.1-1.2s0.7-1.7,1.2-3.4
	c0.1-0.4,0.2-1,0.4-1.9c0.2-0.8,0.3-1.4,0.3-1.7c0-0.4,0.1-0.7,0.1-1.1c0-0.3,0-0.4-0.1-0.6c-0.2-0.5-0.6-0.8-1.2-0.8
	c-0.3,0-0.6,0.1-0.9,0.3s-0.6,0.5-0.8,0.9s-0.4,0.9-0.6,1.7l-1.2,4.7C-124.9,399.3-124.9,400-124.9,400.6z"/>
<path class="st1" d="M-95.5,393.5c-0.1,0.8-0.3,1.5-0.5,2.3s-0.3,1.3-0.4,1.7h-9.4l-0.8,3.1c0,0.3-0.1,0.7-0.1,1.2
	c0.1,0.6,0.5,1,1.2,1c0.2,0,0.4,0,0.7-0.1c0.8-0.3,1.4-1.1,1.7-2.4l0.2-0.8h6c-0.1,0.4-0.3,1-0.6,1.8c-1.5,3.2-3.8,5-7,5.3
	c-1.3,0.1-2,0.2-2.3,0.2c-1.4,0-2.5-0.2-3.4-0.6s-1.5-1-2-1.7c-0.4-0.8-0.6-1.8-0.6-3c0-1.4,0.3-3.1,0.8-5.2s1.2-3.8,2.1-5.2
	c0.8-1.4,1.8-2.5,2.8-3.2c1.1-0.7,2.3-1.2,3.6-1.4c1-0.1,1.9-0.2,2.5-0.2c2,0,3.5,0.4,4.4,1.2s1.4,2.1,1.4,3.8
	C-95.2,391.7-95.3,392.5-95.5,393.5L-95.5,393.5z M-105,394h3.5l0.1-0.6c0.2-0.9,0.3-1.6,0.3-1.9c0-0.9-0.5-1.3-1.6-1.3
	c-1,0.2-1.7,1.3-2.2,3.2L-105,394L-105,394z"/>
<path class="st1" d="M-90,406.3h-6.4l4.8-19.5h6.2l-0.5,2.1c0.1-0.2,0.3-0.4,0.5-0.6c0.8-0.8,1.6-1.3,2.5-1.7
	c0.8-0.3,1.7-0.5,2.7-0.5h0.7c1,0.1,1.6,0.4,2,0.7s0.7,0.9,1,1.7c0.1,0.3,0.1,0.4,0.1,0.5c0.3-0.4,0.5-0.6,0.6-0.6
	c0.7-0.7,1.3-1.2,1.9-1.5s1.4-0.6,2.2-0.7h1.8c1,0.2,1.8,0.5,2.2,1c0.5,0.5,0.7,1.1,0.7,2c0,0.5-0.1,1.2-0.3,2.1l-3.7,14.9h-6.4
	l3.3-13.2c0.1-0.3,0.1-0.5,0.1-0.8c0-0.5-0.2-0.9-0.5-1c-0.2-0.1-0.4-0.1-0.5-0.1c-0.4,0-0.8,0.2-1.3,0.5c-0.4,0.4-0.8,0.8-1,1.4
	c0,0.1-0.1,0.2-0.1,0.2v0.1l-3.2,12.8H-87l3.3-13.4c0.1-0.3,0.1-0.6,0.1-0.8c0-0.3-0.1-0.5-0.3-0.7s-0.4-0.3-0.7-0.3
	c-0.1,0-0.2,0-0.4,0.1c-0.4,0.1-0.9,0.4-1.3,0.9c-0.2,0.3-0.4,0.7-0.5,1.1C-86.8,393-90,406.3-90,406.3z"/>
<path class="st1" d="M-67.7,412.9l-2.9-0.2l1.1-4.3h1.3c0.6,0,1,0,1.2-0.1c0.9-0.4,1.4-0.8,1.5-1.3l0.1-0.7l-0.5-19.5h6.7l-1.2,12.8
	l5-12.8h6.5L-59,407c-0.8,1.5-1.5,2.7-2.2,3.6s-1.5,1.5-2.4,1.9c-0.9,0.4-1.9,0.6-3.1,0.6C-67.1,412.9-67.5,412.9-67.7,412.9z"/>
<path class="st0" d="M-212.1,417.1c0.4,0.3,1,0.5,1.7,0.5c0.9,0,1.7-0.5,1.7-1.5c0-0.6-0.3-1-1.2-1.5c-1-0.6-1.6-1.2-1.6-2
	c0-1.4,1.2-2.3,2.7-2.3c0.8,0,1.3,0.2,1.6,0.4l-0.4,0.8c-0.2-0.2-0.7-0.4-1.4-0.4c-1,0-1.6,0.6-1.6,1.3c0,0.6,0.4,1,1.2,1.5
	c1,0.5,1.5,1.1,1.5,2.1c0,1.4-1.1,2.4-2.8,2.4c-0.8,0-1.6-0.3-1.9-0.6L-212.1,417.1L-212.1,417.1z M-209.2,410l-1-1.4h0.8l0.6,0.8
	l0.9-0.8h0.9l-1.4,1.4H-209.2z"/>
<path class="st0" d="M-207.1,418.3l1.6-8.3h1l-1,5.2c0.2-0.2,0.4-0.4,0.5-0.6l2-2h1.2l-2.5,2.4l1.7,3.3h-1.1l-1.4-2.8l-0.7,0.6
	l-0.4,2.2L-207.1,418.3L-207.1,418.3z"/>
<path class="st0" d="M-196.8,414.9c0,1.8-1.2,3.6-3.1,3.6c-1.4,0-2.2-1.1-2.2-2.3c0-1.9,1.3-3.6,3.1-3.6
	C-197.5,412.5-196.8,413.7-196.8,414.9z M-201.1,416.1c0,0.9,0.5,1.6,1.3,1.6c1.1,0,2-1.5,2-2.8c0-0.7-0.3-1.6-1.3-1.6
	C-200.3,413.3-201.1,414.8-201.1,416.1z"/>
<path class="st0" d="M-196.4,418.3l1.6-8.3h1l-1.6,8.3H-196.4z"/>
<path class="st0" d="M-190.3,418.3c0-0.3,0.1-0.9,0.1-1.5c-0.6,1.2-1.4,1.6-2.2,1.6c-1,0-1.6-0.8-1.6-1.9c0-2,1.5-4,3.9-4
	c0.6,0,1.1,0.1,1.5,0.2l-0.6,3c-0.2,1-0.3,2-0.2,2.6L-190.3,418.3L-190.3,418.3z M-189.6,413.4c-0.1,0-0.3-0.1-0.7-0.1
	c-1.5,0-2.7,1.5-2.7,3.1c0,0.6,0.2,1.3,1,1.3s1.8-1.1,2-2.6L-189.6,413.4L-189.6,413.4z"/>
<path class="st0" d="M-186.8,417.7l2.7-3.1l1.2-1.2h-2.9l0.2-0.8h4.1l-0.1,0.6l-2.7,3l-1.2,1.2h3.1l-0.2,0.8h-4.3L-186.8,417.7
	L-186.8,417.7z"/>
<path class="st0" d="M-178,418.3c0-0.3,0.1-0.9,0.1-1.5c-0.6,1.2-1.4,1.6-2.2,1.6c-1,0-1.6-0.8-1.6-1.9c0-2,1.5-4,3.9-4
	c0.5,0,1.1,0.1,1.5,0.2l-0.6,3c-0.2,1-0.3,2-0.2,2.6L-178,418.3L-178,418.3z M-177.4,413.4c-0.1,0-0.3-0.1-0.7-0.1
	c-1.5,0-2.7,1.5-2.7,3.1c0,0.6,0.2,1.3,1,1.3s1.8-1.1,2-2.6L-177.4,413.4L-177.4,413.4z"/>
<path class="st0" d="M-174.6,420.6l1.1-6c0.1-0.7,0.2-1.5,0.3-2h0.9l-0.2,1.1c0.5-0.7,1.3-1.2,2-1.2c1.2,0,1.7,1,1.7,2
	c0,2-1.4,3.9-3.3,3.9c-0.6,0-1-0.1-1.2-0.3l-0.4,2.5H-174.6L-174.6,420.6z M-173.1,417.4c0.3,0.2,0.6,0.3,1.1,0.3
	c1.3,0,2.3-1.6,2.3-3c0-0.6-0.3-1.3-1.1-1.3s-1.7,0.9-2,2.5L-173.1,417.4z"/>
<path class="st0" d="M-168.3,418.3l0.7-3.7c0.1-0.7,0.2-1.5,0.3-2h0.9c0,0.4-0.1,0.8-0.2,1.2c0.4-0.8,1-1.4,1.7-1.4h0.3l-0.2,1h-0.3
	c-0.8,0-1.6,1-1.8,2.3l-0.4,2.6H-168.3z"/>
<path class="st0" d="M-159.5,414.9c0,1.8-1.2,3.6-3.1,3.6c-1.4,0-2.2-1.1-2.2-2.3c0-1.9,1.3-3.6,3.1-3.6
	C-160.2,412.5-159.5,413.7-159.5,414.9z M-163.8,416.1c0,0.9,0.5,1.6,1.3,1.6c1.1,0,2-1.5,2-2.8c0-0.7-0.3-1.6-1.3-1.6
	C-163,413.3-163.8,414.8-163.8,416.1z"/>
<path class="st0" d="M-159,418.3l0.9-4.9h-0.7l0.1-0.8h0.8l0.1-0.3c0.3-1.5,1.2-2.5,2.7-2.5c0.5,0,1.1,0.2,1.3,0.3l-0.3,0.8
	c-0.2-0.1-0.6-0.3-1.1-0.3c-1,0-1.5,0.8-1.6,1.7v0.3h3l-1.1,5.7h-1l0.9-4.9h-2.1l-0.9,4.9L-159,418.3L-159,418.3z"/>
<path class="st0" d="M-151.1,411.3l-0.2,1.4h1.4l-0.2,0.8h-1.4l-0.5,2.7c-0.1,0.3-0.1,0.6-0.1,0.9s0.2,0.5,0.5,0.5h0.5v0.8
	c-0.2,0.1-0.5,0.1-0.7,0.1c-0.9,0-1.2-0.5-1.2-1.1c0-0.3,0-0.6,0.1-1.1l0.6-2.9h-0.8l0.1-0.8h0.7l0.2-1.1L-151.1,411.3L-151.1,411.3
	z"/>
<path class="st0" d="M-146.5,418.3c0-0.3,0.1-0.9,0.1-1.5c-0.6,1.2-1.4,1.6-2.2,1.6c-1,0-1.6-0.8-1.6-1.9c0-2,1.5-4,3.9-4
	c0.6,0,1.1,0.1,1.5,0.2l-0.6,3c-0.2,1-0.3,2-0.2,2.6L-146.5,418.3L-146.5,418.3z M-145.8,413.4c-0.1,0-0.3-0.1-0.7-0.1
	c-1.5,0-2.7,1.5-2.7,3.1c0,0.6,0.2,1.3,1,1.3s1.8-1.1,2-2.6L-145.8,413.4L-145.8,413.4z"/>
<path class="st0" d="M-141.9,410l-0.7,3.7c0.5-0.8,1.2-1.2,2-1.2c1.2,0,1.7,1,1.7,2c0,1.7-1.3,3.9-3.5,3.9c-1,0-1.7-0.4-1.7-1.5
	c0-0.3,0-0.6,0.1-0.9l1.2-6.1h0.9V410z M-143.1,416.1c0,0.2-0.1,0.4-0.1,0.7c0,0.5,0.3,0.8,0.9,0.8c1.5,0,2.4-1.7,2.4-3
	c0-0.7-0.3-1.3-1.1-1.3s-1.7,0.9-2,2.2L-143.1,416.1L-143.1,416.1z"/>
<path class="st0" d="M-138.5,418.3l1.1-5.7h1l-1.1,5.7H-138.5z M-137.3,411.1c0-0.4,0.3-0.7,0.6-0.7c0.4,0,0.6,0.3,0.6,0.6
	c0,0.4-0.3,0.7-0.7,0.7C-137.1,411.7-137.3,411.4-137.3,411.1z"/>
<path class="st0" d="M-136.1,418.3l1.6-8.3h1l-1.6,8.3H-136.1z"/>
<path class="st0" d="M-133.8,418.3l0.7-4c0.1-0.6,0.2-1.2,0.3-1.7h0.9l-0.1,1.1c0.5-0.8,1.3-1.2,2.1-1.2c0.7,0,1.4,0.4,1.4,1.6
	c0,0.3,0,0.6-0.1,0.9l-0.6,3.3h-1l0.6-3.3c0-0.2,0.1-0.5,0.1-0.7c0-0.6-0.2-1-0.9-1c-0.7,0-1.7,0.8-1.9,2.2l-0.5,2.7h-1V418.3z"/>
<path class="st0" d="M-122.4,412.7l-0.8,4c-0.1,0.6-0.2,1.2-0.3,1.7h-0.9l0.1-1.1c-0.5,0.7-1.2,1.2-2,1.2c-0.7,0-1.5-0.4-1.5-1.6
	c0-0.3,0-0.6,0.1-1l0.6-3.2h1l-0.6,3.2c-0.1,0.3-0.1,0.6-0.1,0.8c0,0.6,0.2,1,0.9,1s1.6-0.8,1.8-2.1l0.6-2.9
	C-123.5,412.7-122.4,412.7-122.4,412.7z"/>
<path class="st0" d="M-117.7,410.4l-1.5,7.9h-1l1.5-7.9H-117.7z"/>
<path class="st0" d="M-115,411.3h-2.3l0.2-0.8h5.6l-0.2,0.8h-2.3l-1.3,7h-1C-116.3,418.3-115,411.3-115,411.3z"/>
<path class="st0" d="M-110.7,418.3l1.6-8.3h1l-1,5.2c0.2-0.2,0.4-0.4,0.5-0.6l2-2h1.2l-2.5,2.3l1.7,3.3h-1.1l-1.4-2.8l-0.7,0.6
	l-0.4,2.2L-110.7,418.3L-110.7,418.3L-110.7,418.3z"/>
<path class="st0" d="M-102,418.3c0-0.3,0.1-0.9,0.1-1.5c-0.6,1.2-1.4,1.6-2.2,1.6c-1,0-1.6-0.8-1.6-1.9c0-2,1.5-4,3.9-4
	c0.5,0,1.1,0.1,1.5,0.2l-0.6,3c-0.2,1-0.3,2-0.2,2.6L-102,418.3L-102,418.3z M-101.4,413.4c-0.1,0-0.3-0.1-0.7-0.1
	c-1.5,0-2.7,1.5-2.7,3.1c0,0.6,0.2,1.3,1,1.3s1.8-1.1,2-2.6L-101.4,413.4L-101.4,413.4z"/>
<path class="st0" d="M-100,418.3l0.7-3.7c0.1-0.7,0.2-1.5,0.3-2h0.9c0,0.4-0.1,0.8-0.2,1.2c0.4-0.8,1-1.4,1.7-1.4h0.3l-0.2,1h-0.3
	c-0.8,0-1.6,1-1.8,2.3l-0.5,2.5h-0.9V418.3z"/>
<path class="st0" d="M-96.5,418.3l1.1-5.7h1l-1.1,5.7H-96.5z M-95.3,411.1c0-0.4,0.3-0.7,0.6-0.7c0.4,0,0.6,0.3,0.6,0.6
	c0,0.4-0.3,0.7-0.7,0.7C-95.1,411.7-95.3,411.4-95.3,411.1z"/>
<path class="st0" d="M-92,412.7l-1.1,5.7c-0.2,0.9-0.4,1.5-0.7,1.9s-0.8,0.6-1.3,0.6c-0.2,0-0.5,0-0.6-0.1l0.1-0.8h0.4
	c0.5,0,0.9-0.3,1.1-1.5l1.1-5.8L-92,412.7L-92,412.7z M-92.9,411.1c0-0.4,0.3-0.7,0.6-0.7s0.6,0.3,0.6,0.6c0,0.4-0.3,0.7-0.7,0.7
	C-92.7,411.7-92.9,411.4-92.9,411.1z"/>
<path class="st0" d="M-87.7,418c-0.4,0.2-1.1,0.4-1.9,0.4c-1.5,0-2.2-1-2.2-2.3c0-1.7,1.3-3.6,3.1-3.6c1.1,0,1.7,0.6,1.7,1.5
	c0,1.5-1.7,1.9-3.8,1.8c0,0.2,0,0.8,0.1,1.1c0.2,0.5,0.7,0.8,1.3,0.8c0.7,0,1.2-0.2,1.5-0.4C-87.9,417.3-87.7,418-87.7,418z
	 M-88.8,413.3c-0.9,0-1.6,0.9-1.9,1.8c1.5,0,2.7-0.2,2.7-1.1C-87.9,413.6-88.3,413.3-88.8,413.3L-88.8,413.3z"/>
<path class="st0" d="M-86.8,418.3l0.7-3.7c0.1-0.7,0.2-1.5,0.3-2h0.9c0,0.4-0.1,0.8-0.2,1.2c0.4-0.8,1-1.4,1.7-1.4h0.3l-0.2,1h-0.3
	c-0.8,0-1.6,1-1.8,2.3l-0.5,2.5h-0.9V418.3z"/>
<path class="st0" d="M-77.8,412.7l-0.8,4c-0.1,0.6-0.2,1.2-0.3,1.7h-0.9l0.1-1.1c-0.5,0.7-1.2,1.2-2,1.2c-0.7,0-1.5-0.4-1.5-1.6
	c0-0.3,0-0.6,0.1-1l0.6-3.2h1l-0.6,3.2c-0.1,0.3-0.1,0.6-0.1,0.8c0,0.6,0.2,1,0.9,1s1.6-0.8,1.8-2.1l0.5-2.9
	C-79,412.7-77.8,412.7-77.8,412.7z"/>
<path class="st0" d="M-104.4,373.1l-0.7,3.7c0.5-0.8,1.2-1.2,2-1.2c1.2,0,1.7,1,1.7,2c0,1.7-1.3,3.9-3.5,3.9c-1,0-1.7-0.4-1.7-1.4
	c0-0.3,0-0.6,0.1-0.9l1.2-6.1H-104.4z M-105.7,379.3c0,0.2-0.1,0.4-0.1,0.7c0,0.5,0.3,0.8,0.9,0.8c1.5,0,2.4-1.7,2.4-3
	c0-0.7-0.3-1.3-1.1-1.3s-1.7,0.9-2,2.2L-105.7,379.3L-105.7,379.3z"/>
<path class="st0" d="M-99.9,375.8l0.6,3c0.1,0.7,0.2,1.1,0.3,1.5c0.2-0.4,0.3-0.8,0.6-1.4l1.5-3.1h1l-2.1,4.3c-0.6,1.2-1.2,2.2-2,3
	c-0.6,0.6-1.3,0.9-1.6,1l-0.2-0.8c0.2-0.1,0.7-0.2,1-0.5c0.4-0.3,0.8-0.7,1.1-1.3v-0.3l-1.1-5.3L-99.9,375.8L-99.9,375.8z"/>
<path class="st0" d="M-92.9,373.6h1l-1.4,7h3.2l-0.2,0.9h-4.1L-92.9,373.6z"/>
<path class="st0" d="M-87.1,373.6l-1.5,7.9h-1l1.5-7.9H-87.1z"/>
<path class="st0" d="M-87.1,381.5l1.5-7.9h1.1l1.8,4.5c0.3,0.9,0.5,1.5,0.7,2.2c0-0.7,0.1-1.4,0.3-2.5l0.8-4.2h0.9l-1.5,7.9h-1
	l-1.8-4.5c-0.4-1-0.6-1.5-0.7-2.3c-0.1,0.7-0.2,1.5-0.4,2.6l-0.8,4.1L-87.1,381.5L-87.1,381.5L-87.1,381.5z"/>
<path class="st0" d="M-78.5,373.6h1l-0.8,3.8c0.3-0.3,0.5-0.6,0.8-0.9l2.8-2.9h1.2l-3.3,3.4l2,4.5h-1.1l-1.6-3.9l-0.9,0.9l-0.6,3h-1
	C-80,381.5-78.5,373.6-78.5,373.6z"/>
<path class="st0" d="M-74.3,382.7c0.3,0.2,0.9,0.4,1.5,0.4c1,0,1.7-0.5,2-2l0.2-0.9c-0.5,0.8-1.2,1.2-2,1.2c-1.1,0-1.7-1-1.7-2
	c0-1.9,1.4-3.8,3.6-3.8c0.7,0,1.4,0.2,1.8,0.4l-0.9,4.7c-0.2,1.2-0.6,2-1.1,2.5c-0.6,0.5-1.3,0.6-2,0.6c-0.7,0-1.3-0.2-1.7-0.4
	L-74.3,382.7L-74.3,382.7z M-70,376.6c-0.2-0.1-0.5-0.2-0.9-0.2c-1.4,0-2.4,1.5-2.4,2.9c0,0.6,0.2,1.4,1.1,1.4
	c0.8,0,1.7-1.1,1.9-2.2L-70,376.6L-70,376.6z"/>
<path class="st0" d="M-68.5,381.5l0.7-3.6c0.1-0.7,0.2-1.5,0.3-2h0.9c0,0.4-0.1,0.8-0.2,1.2c0.4-0.8,1-1.4,1.7-1.4h0.3l-0.2,1h-0.3
	c-0.8,0-1.6,1-1.8,2.3l-0.5,2.5H-68.5z"/>
<path class="st0" d="M-59.7,378c0,1.8-1.2,3.6-3.1,3.6c-1.4,0-2.2-1.1-2.2-2.3c0-1.9,1.3-3.6,3.1-3.6
	C-60.4,375.7-59.7,376.8-59.7,378z M-64.1,379.2c0,0.9,0.5,1.6,1.3,1.6c1.1,0,2-1.5,2-2.8c0-0.7-0.3-1.6-1.3-1.6
	C-63.3,376.4-64.1,377.9-64.1,379.2z"/>
<path class="st0" d="M-53.8,375.8l-0.8,4c-0.1,0.6-0.2,1.2-0.3,1.6h-0.9l0.1-1.1c-0.5,0.7-1.2,1.2-2,1.2c-0.7,0-1.5-0.3-1.5-1.6
	c0-0.3,0-0.6,0.1-1l0.6-3.2h1l-0.6,3.2c-0.1,0.3-0.1,0.6-0.1,0.8c0,0.6,0.2,1,0.9,1s1.6-0.8,1.8-2.1l0.6-2.9h1.1
	C-53.8,375.7-53.8,375.8-53.8,375.8z"/>
<path class="st0" d="M-54,383.8l1.1-6c0.1-0.7,0.2-1.5,0.3-2h0.9l-0.2,1.1c0.5-0.7,1.3-1.2,2-1.2c1.2,0,1.7,1,1.7,2
	c0,2-1.4,3.9-3.3,3.9c-0.6,0-1-0.1-1.2-0.3l-0.5,2.4H-54V383.8z M-52.4,380.5c0.3,0.2,0.6,0.3,1.1,0.3c1.3,0,2.3-1.6,2.3-3
	c0-0.6-0.3-1.3-1.1-1.3s-1.7,0.9-2,2.5L-52.4,380.5z"/>
<path class="st2" d="M-44.3,386.8v0.5h-1v2.4h-0.6v-2.4h-0.9v-0.5H-44.3z M-41.2,389.7l-0.1-1.7v-0.8c-0.1,0.3-0.2,0.6-0.2,0.9
	l-0.5,1.6h-0.6l-0.5-1.6c-0.1-0.2-0.1-0.6-0.2-0.8v0.8l-0.1,1.7h-0.5l0.2-2.9h0.9l0.5,1.4c0.1,0.2,0.1,0.4,0.2,0.7
	c0.1-0.3,0.1-0.5,0.2-0.7l0.5-1.4h0.8l0.2,2.9h-0.8V389.7z"/>
<g class="st3">
	<g class="st4">
		<path class="st5" d="M-205.6,408.9h-6.9l6.5-26.2h6.9L-205.6,408.9z"/>
		<path class="st5" d="M-194.4,388.5h-5.2l1.4-5.7h17l-1.4,5.7h-4.9l-5.1,20.4h-6.9L-194.4,388.5z"/>
		<path class="st5" d="M-183.6,408.9h-7.1l13-26.2h7.8l0.1,26.2h-7.1l0.4-4.4h-5.3L-183.6,408.9z M-179.6,399.2h3.6l0.8-10.5
			L-179.6,399.2z"/>
		<path class="st5" d="M-149.6,395.6c0,0.3-0.1,0.6-0.2,1h-5.9l0.1-0.8c0-0.2,0.1-0.4,0.1-0.7c0.1-0.5,0.1-0.9,0.1-1.1
			c0-0.1,0-0.3-0.1-0.5c-0.1-0.3-0.2-0.5-0.4-0.6c-0.2-0.2-0.4-0.2-0.7-0.2c-0.3,0-0.6,0.1-0.9,0.3c-0.5,0.3-1,0.9-1.3,1.6
			c-0.4,0.8-0.8,2.3-1.4,4.6c-0.3,1.2-0.5,2.1-0.6,2.7c-0.1,0.6-0.1,1.2-0.1,1.9c0,0.3,0.2,0.6,0.4,0.8c0.2,0.2,0.5,0.3,0.8,0.3
			c0.3,0,0.6-0.1,0.9-0.2c0.8-0.4,1.4-1.4,1.8-2.9l0.3-1.1l0.1-0.3h5.9c-0.1,0.6-0.3,1.2-0.4,1.7c-0.7,2.1-1.6,3.7-2.8,4.8
			c-1.2,1.1-2.7,1.8-4.5,2c-1,0.1-1.9,0.2-2.8,0.2c-2,0-3.6-0.4-4.5-1.3c-1-0.9-1.5-2.3-1.5-4.2c0-1.2,0.2-2.8,0.7-4.6
			c0.5-1.8,1-3.4,1.6-4.6c0.6-1.2,1.2-2.3,2-3.2c0.8-0.9,1.6-1.5,2.5-2c0.9-0.5,1.9-0.7,3-0.9c1.1-0.1,2-0.2,2.7-0.2
			c2,0,3.5,0.4,4.3,1.1c0.9,0.8,1.3,2,1.3,3.6C-149.3,393.7-149.4,394.5-149.6,395.6z"/>
		<path class="st5" d="M-141.7,394.4c0,0-0.1,0.1-0.1,0.3c-0.1,0.2-0.1,0.4-0.1,0.5h-5.9c0.3-1.2,0.7-2.3,1.4-3.2
			c0.7-0.9,1.6-1.7,2.7-2.3c1.1-0.6,2.3-0.9,3.7-1c0.8-0.1,1.5-0.1,2.2-0.1c2,0,3.5,0.3,4.5,1c0.9,0.6,1.4,1.6,1.4,3
			c0,0.7-0.1,1.4-0.3,2.2l-2.8,11.1l-0.1,0.5l-0.1,0.5c0,0.5-0.1,1.2-0.1,2h-6.1l0-0.3v-0.2v-0.2l0.1-0.5l0.1-0.6l0-0.3
			c-0.2,0.4-0.6,0.7-0.9,1c-0.9,0.8-2,1.3-3.3,1.4c-0.5,0.1-0.9,0.1-1.3,0.1c-1.3,0-2.3-0.4-2.9-1.1c-0.6-0.7-1-1.8-1-3.3
			c0-0.5,0.1-1.1,0.3-1.7c0.3-1.1,0.6-2,1-2.7c0.4-0.7,0.9-1.2,1.5-1.7c0.6-0.4,1.4-0.9,2.5-1.2c0.2-0.1,0.4-0.1,0.6-0.2
			c0.2-0.1,0.3-0.1,0.5-0.1l3.9-0.9c0.7-0.2,1.2-0.4,1.5-0.7c0.3-0.3,0.5-0.7,0.6-1.2c0.1-0.3,0.1-0.5,0.1-0.8
			c0-0.8-0.5-1.2-1.6-1.2C-140.7,392.7-141.3,393.3-141.7,394.4z M-139.5,399.3l-2.4,0.9c-0.1,0-0.1,0.1-0.2,0.1c0,0-0.1,0-0.1,0.1
			c-0.6,0.3-1,0.7-1.3,1c-0.3,0.3-0.4,0.8-0.6,1.4c-0.1,0.2-0.1,0.4-0.1,0.7c0,0.5,0.1,0.8,0.4,1.1c0.2,0.3,0.6,0.4,1,0.4
			c0.2,0,0.4,0,0.5-0.1c1-0.3,1.8-1.4,2.2-3.3L-139.5,399.3z"/>
		<path class="st5" d="M-126.6,389.7c1-0.7,1.9-1,2.7-1c0.8,0,1.4,0.2,1.9,0.5c0.5,0.3,1.4,1,2.7,1.9l2.1-8.4h6.5l-6.5,26.2h-6.2
			l0.5-2.2c-0.2,0.3-0.3,0.5-0.5,0.7c-0.9,1-2,1.7-3.3,1.9c-0.5,0.1-0.9,0.1-1.3,0.1c-1.3,0-2.4-0.4-3.1-1.3
			c-0.7-0.9-1.1-2.2-1.1-3.9c0-1,0.2-2.4,0.5-4c0.4-1.7,0.7-3.1,1.1-4.3c0.4-1.1,0.7-2.1,1.1-2.9c0.4-0.8,0.8-1.4,1.3-2
			C-127.7,390.6-127.2,390.1-126.6,389.7z M-125.4,403.3c0.2,0.8,0.5,1.2,1.1,1.2c0.2,0,0.4-0.1,0.8-0.2c0.4-0.2,0.8-0.6,1.1-1.2
			c0.3-0.6,0.7-1.8,1.2-3.4c0.1-0.4,0.2-1.1,0.4-1.9c0.2-0.8,0.3-1.4,0.3-1.7c0-0.4,0.1-0.7,0.1-1.1c0-0.3,0-0.4-0.1-0.6
			c-0.2-0.5-0.6-0.8-1.2-0.8c-0.3,0-0.6,0.1-0.9,0.3c-0.4,0.2-0.6,0.5-0.9,0.9c-0.2,0.4-0.4,0.9-0.6,1.7l-1.2,4.8
			C-125.3,402-125.4,402.6-125.4,403.3z"/>
		<path class="st5" d="M-95.7,396.1c-0.1,0.8-0.3,1.5-0.5,2.3c-0.2,0.8-0.3,1.3-0.4,1.7h-9.5l-0.8,3.1c0,0.3-0.1,0.7-0.1,1.2
			c0.1,0.6,0.5,1,1.2,1c0.2,0,0.4,0,0.7-0.1c0.8-0.3,1.4-1.1,1.7-2.4l0.2-0.8h6c-0.1,0.4-0.3,1-0.6,1.8c-1.5,3.2-3.8,5-7,5.3
			c-1.3,0.1-2,0.2-2.3,0.2c-1.4,0-2.6-0.2-3.5-0.6c-0.9-0.4-1.6-1-2-1.8c-0.4-0.8-0.6-1.8-0.6-3c0-1.4,0.3-3.2,0.8-5.2
			c0.6-2.1,1.2-3.8,2.1-5.3c0.8-1.4,1.8-2.5,2.9-3.3c1.1-0.7,2.3-1.2,3.6-1.4c1-0.1,1.9-0.2,2.5-0.2c2,0,3.5,0.4,4.4,1.2
			c0.9,0.8,1.4,2.1,1.4,3.8C-95.5,394.3-95.5,395.1-95.7,396.1z M-105.3,396.6h3.6l0.1-0.6c0.2-1,0.3-1.6,0.3-1.9
			c0-0.9-0.6-1.3-1.7-1.3c-1,0.2-1.8,1.3-2.2,3.3L-105.3,396.6z"/>
		<path class="st5" d="M-90.2,408.9h-6.5l4.9-19.6h6.2l-0.5,2.1c0.1-0.2,0.3-0.4,0.5-0.6c0.8-0.8,1.7-1.3,2.5-1.7
			c0.8-0.3,1.7-0.5,2.7-0.5c0.3,0,0.5,0,0.7,0c1,0.1,1.6,0.4,2.1,0.7c0.4,0.3,0.7,0.9,1,1.7c0.1,0.3,0.1,0.4,0.1,0.5
			c0.3-0.4,0.5-0.6,0.6-0.7c0.7-0.7,1.3-1.2,2-1.5c0.7-0.3,1.4-0.6,2.3-0.7h1.8c1,0.2,1.8,0.5,2.2,1c0.5,0.5,0.7,1.1,0.7,2
			c0,0.6-0.1,1.2-0.3,2.1l-3.7,15h-6.5l3.3-13.3c0.1-0.3,0.1-0.5,0.1-0.8c0-0.5-0.2-0.9-0.5-1c-0.2-0.1-0.4-0.1-0.5-0.1
			c-0.4,0-0.8,0.2-1.3,0.5c-0.4,0.4-0.8,0.8-1,1.4c0,0.1-0.1,0.2-0.1,0.2c0,0,0,0.1,0,0.1l-3.2,12.9h-6.5l3.4-13.5
			c0.1-0.3,0.1-0.6,0.1-0.8c0-0.3-0.1-0.5-0.3-0.7c-0.2-0.2-0.4-0.3-0.7-0.3c-0.1,0-0.2,0-0.4,0.1c-0.4,0.1-0.9,0.4-1.3,0.9
			c-0.2,0.3-0.4,0.7-0.5,1.1L-90.2,408.9z"/>
		<path class="st5" d="M-67.7,415.6l-2.9-0.2l1.1-4.4h1.3c0.6,0,1,0,1.2-0.1c0.9-0.4,1.4-0.8,1.5-1.3l0.1-0.7l-0.5-19.7h6.8
			l-1.2,12.8l5.1-12.8h6.5L-59,409.6c-0.8,1.5-1.5,2.7-2.2,3.6c-0.7,0.9-1.5,1.5-2.4,1.9c-0.9,0.4-1.9,0.6-3.1,0.6
			C-67.1,415.7-67.5,415.7-67.7,415.6z"/>
	</g>
	<g class="st4">
		<path class="st5" d="M-44.2,389.3v0.5h-0.9v2.4h-0.6v-2.4h-0.9v-0.5H-44.2z M-41.1,392.2l-0.1-1.7c0-0.2,0-0.5,0-0.8h0
			c-0.1,0.3-0.2,0.6-0.2,0.9l-0.5,1.6h-0.6l-0.5-1.6c-0.1-0.2-0.1-0.6-0.2-0.8h0c0,0.3,0,0.5,0,0.8l-0.1,1.7H-44l0.2-2.9h0.9
			l0.5,1.4c0.1,0.2,0.1,0.4,0.2,0.7h0c0.1-0.3,0.1-0.5,0.2-0.7l0.5-1.4h0.8l0.2,2.9H-41.1z"/>
	</g>
</g>
</svg>
