<?xml version="1.0" encoding="utf-8"?>
<!-- Generator: Adobe Illustrator 24.2.3, SVG Export Plug-In . SVG Version: 6.00 Build 0)  -->
<svg version="1.1" id="Layer_1" xmlns="http://www.w3.org/2000/svg" xmlns:xlink="http://www.w3.org/1999/xlink" x="0px" y="0px"
	 viewBox="0 0 403.3 109.7" style="enable-background:new 0 0 403.3 109.7;" xml:space="preserve">
<style type="text/css">
	.st0{clip-path:url(#SVGID_2_);}
	.st1{fill:#BE1D1A;}
	.st2{fill:#3C3C3B;}
</style>
<g id="Layer_2_1_">
	<g id="Layer_1-2">
		<g>
			<defs>
				
					<rect id="SVGID_1_" x="11.5" y="2.2" transform="matrix(3.128017e-02 -0.9995 0.9995 3.128017e-02 2.3517 150.4238)" width="134.6" height="143.6"/>
			</defs>
			<clipPath id="SVGID_2_">
				<use xlink:href="#SVGID_1_"  style="overflow:visible;"/>
			</clipPath>
			<g class="st0">
				<path class="st1" d="M147.4,38.6c0.3-0.3,0.7-0.6,1.2-0.8c0.4-0.2,0.9-0.2,1.3-0.1c0.4,0.1,0.8,0.3,1.1,0.6
					c0.5,0.5,0.7,1.2,0.6,1.9c-0.1,0.7-0.4,1.4-1,2c0,0,0,0-0.1,0.1l-0.1,0.1c0,0-0.1,0.1-0.1,0.1c-0.1,0-0.1,0.1-0.1,0
					c-0.2,0.2-0.4,0.3-0.5,0.5c-0.2,0.2-0.6,0.6-1.2,1.1s-1.2,1.1-2,1.8c-0.8,0.7-1.8,1.7-3.1,2.9c-0.8,0.8-1.6,1.6-2.6,2.6
					s-2.1,2-3.2,3.1c-0.3,0.3-0.7,0.6-1,1l-1,1c-0.6,0.6-1.2,1.1-1.8,1.8s-1.3,1.3-1.9,2l-1.2,1.2l0,0c-0.3,0.3-0.7,0.7-1,1l-1.1,1
					c-0.7,0.7-1.4,1.3-2.1,2c-0.7,0.7-1.5,1.4-2.3,2.1c-0.8,0.7-1.8,1.4-2.7,2.1c-1,0.8-2.2,1.4-3.3,1.9c-0.4,0.2-0.9,0.3-1.4,0.5
					c-0.5,0.1-1,0.2-1.5,0.2c-0.3,0-0.7-0.1-1-0.2c-0.3-0.1-0.7-0.2-1-0.4c-0.6-0.3-1.1-0.7-1.4-1.2l0,0c-0.3-0.4-0.5-0.8-0.7-1.3
					c-0.1-0.4-0.3-0.8-0.4-1.1s-0.1-0.6-0.1-0.7c0-0.1,0-0.3,0-0.4c0,0,0,0,0-0.1c0,0,0,0,0-0.1l0-0.6c-0.1-1-0.1-2,0-3
					c0.1-0.8,0.1-1.6,0.2-2.4c0-0.4,0.1-0.8,0.1-1.1c0-0.3,0.1-0.6,0.1-1c0-0.4,0.1-0.7,0.2-1.2s0.1-1,0.2-1.7
					c-0.6,0.4-1.3,0.8-1.8,1.2s-1.3,0.8-2,1.2c-2,1.2-4.1,2.2-6.2,3.1c-1.9,0.8-3.8,1.5-5.5,2.1c-1.7,0.6-3.2,1-4.5,1.4
					c-1.3,0.3-2.5,0.5-3.6,0.7c-1.9,0.3-3.2,0.4-4.3,0.5l-2.2,0.1c0,0-0.1,0-0.1,0c0,0,0,0,0,0c0,0,0,0,0,0c-0.8,0-1.5-0.3-2.1-0.9
					c-0.5-0.5-0.8-1.1-0.8-1.8c0.1-0.6,0.4-1.2,0.9-1.5c0.5-0.4,1.2-0.6,1.8-0.6l-0.1,0c2.3-0.1,3.9-0.2,4.7-0.3s0.8,0,0,0.3
					c0.8-0.1,1.8-0.2,3-0.4c1.2-0.2,2.7-0.5,4.2-0.9c0.6-0.2,1.2-0.3,1.9-0.6s1.4-0.4,2.1-0.7c1.2-0.4,2.6-1,4.1-1.6
					c1.5-0.7,3.1-1.5,4.8-2.3c1.2-0.7,2.4-1.4,3.4-2c1-0.6,1.9-1.2,2.7-1.7l0.2-0.1c0.1,0,0.2-0.1,0.2-0.2c0,0,0.1,0,0.1-0.1
					c0,0,0.1-0.1,0.1-0.1s0,0,0,0l0-0.1c0.1,0,0.2-0.1,0.3-0.2c0.2-0.1,0.3-0.2,0.5-0.3c0.2-0.1,0.3-0.2,0.5-0.3
					c0.1-0.1,0.2-0.1,0.3-0.2l1.2,2c0,0.1,0,0.2,0,0.3c0,0.2-0.1,0.3-0.1,0.5c0,0.2-0.1,0.4-0.1,0.5c0,0.1,0,0.2,0,0.3l0,0.2
					c0,0.1,0,0.3,0,0.4c0,0.1-0.1,0.2-0.1,0.3l0,0c0,0.1,0,0.2,0,0.3c0,0.1,0,0.2,0,0.3c0,0.2-0.1,0.5-0.1,0.7
					c0,0.2-0.1,0.4-0.1,0.6l0,0c-0.2,1.5-0.3,2.9-0.3,4.1c-0.1,1.2-0.1,2.2-0.1,3.2l0,0c0,0.4,0,0.8,0.1,1.2c0,0.4,0.1,0.9,0.1,1.3
					c0,0.2,0.1,0.4,0.1,0.6c0,0.2,0.1,0.3,0.1,0.4c0.1,0.2,0.2,0.4,0.3,0.6c0.1,0.1,0.2,0.1,0.5,0c0.3-0.1,0.6-0.2,0.8-0.3
					c0.6-0.2,1.3-0.5,1.9-0.9c0.7-0.4,1.3-0.8,1.9-1.2c0.8-0.5,1.6-1.1,2.4-1.8c0.9-0.7,1.6-1.3,2.3-1.9l0.6-0.5
					c0.2-0.2,0.4-0.3,0.6-0.5c0.2-0.2,0.4-0.4,0.6-0.5c0.2-0.1,0.4-0.3,0.5-0.5c0.1-0.1,0.1-0.1,0.2-0.2c0.1-0.1,0.2-0.1,0.2-0.2
					c0.1-0.1,0.2-0.2,0.3-0.3l0.3-0.2c0.4-0.4,0.9-0.8,1.3-1.2s0.8-0.8,1.2-1.2l0,0c0.2-0.2,0.5-0.4,0.7-0.7l0.7-0.7l0,0
					c0.2-0.2,0.5-0.5,0.8-0.7l0.8-0.8c2.9-3,5.2-5.4,7-7.3c1.8-1.9,3.1-3.3,3.9-4.3c0.4-0.4,0.6-0.7,0.9-1l0.6-0.7
					c0,0,0.1-0.1,0.1-0.1c0,0,0.1-0.1,0.1-0.1l0,0c0.2-0.2,0.4-0.5,0.6-0.7L147.4,38.6L147.4,38.6z"/>
				<path class="st1" d="M82.1,62c0.2,0.3,0.3,0.7,0.3,1.1c0,0.5-0.1,1-0.3,1.4c-0.2,0.5-0.6,1.1-0.9,1.5c-0.4,0.6-0.9,1-1.4,1.5
					l-0.3,0.3c-0.1,0.1-0.2,0.1-0.3,0.2c-0.1,0.1-0.2,0.1-0.3,0.2l-0.2,0.2c-0.2,0.1-0.4,0.3-0.6,0.4s-0.5,0.4-0.9,0.6
					s-0.8,0.6-1.4,1l-2,1.5c-0.4,0.3-0.8,0.7-1.3,1c-0.5,0.4-1,0.8-1.6,1.2c-0.4,0.3-0.8,0.7-1.3,1c-0.4,0.4-0.9,0.7-1.4,1
					c-0.9,0.7-1.9,1.5-3,2.3c-1.1,0.8-2.2,1.7-3.5,2.7l-1,0.8c-0.3,0.3-0.7,0.5-1,0.8l-1.3,1c-1.1,0.8-2.2,1.7-3.4,2.6
					c-1.2,0.9-2.5,1.8-3.8,2.8c-1,0.7-2.1,1.5-3.3,2.3c-1.1,0.8-2.3,1.6-3.6,2.3L44.2,94c0,0-0.1,0.1-0.1,0.1c-0.1,0-0.1,0-0.1,0.1
					l0,0c-0.1,0.1-0.2,0.1-0.3,0.2c-0.1,0-0.2,0.1-0.3,0.2c-0.6,0.4-1.1,0.7-1.6,1c-0.5,0.3-1,0.5-1.3,0.7l0-0.1
					c-0.2,0.1-0.5,0.2-0.7,0.3l-0.6,0.2l-0.5,0.1l-0.2,0c-0.2,0-0.3,0.1-0.4,0.1c-0.2,0-0.4,0-0.6-0.1c-0.4-0.1-0.8-0.3-1.1-0.6
					c-0.3-0.2-0.5-0.5-0.7-0.8l0,0c-0.3-0.5-0.5-0.9-0.6-1.4c-0.1-0.5-0.2-0.9-0.3-1.4l0-0.2c0-0.1,0-0.1,0-0.2c0-0.1,0-0.1,0-0.2
					c-0.2-2-0.3-4-0.4-6c0-2.3,0-4.5,0-6.7c0-0.5,0-0.9,0-1.3c0-0.4,0-0.7,0-0.9c-1.3,2.8-2.5,5.3-3.8,7.6c-1.2,2.3-2.5,4.4-3.7,6.4
					c-1.2,1.9-2.5,3.7-3.8,5.3c-1.3,1.6-2.7,3.1-4.4,4.4c-0.4,0.3-0.9,0.7-1.4,0.9c-0.5,0.3-0.9,0.5-1.4,0.7
					c-0.6,0.2-1.2,0.3-1.9,0.4c-0.7,0.1-1.3,0-2-0.2l0,0c-0.4-0.1-0.8-0.2-1.2-0.4c-0.4-0.2-0.7-0.4-1-0.7c-0.6-0.6-1-1.2-1.3-2
					c-0.2-0.5-0.3-1.1-0.4-1.7c-0.1-0.5-0.1-1,0-1.6c0.1-1,0.1-1.8,0.2-2.4c0.1-0.7,0.2-1.3,0.4-1.9s0.3-1.2,0.5-1.8
					c0.2-0.6,0.3-1.1,0.5-1.6c0.3-1,0.8-2,1.1-2.8c0.3-0.8,7.9-4.4,7.6-3.8c-0.1,0.2-0.2,0.3-0.3,0.5s-0.2,0.4-0.3,0.6
					c0,0.1-0.1,0.1-0.1,0.2c-0.1,0.1-0.1,0.2-0.2,0.3c-0.1,0.1-0.1,0.2-0.2,0.3c-0.1,0.1-0.1,0.3-0.2,0.4c-0.1,0.1-0.2,0.3-0.2,0.4
					c-0.2,0.4-0.4,0.8-0.7,1.3c-0.2,0.5-0.5,1.1-0.8,1.7L15.6,88c0,0-0.1,0.1-0.1,0.2c0,0.1,0,0.1-0.1,0.2c-0.3,0.7-0.6,1.4-0.9,2.3
					c-0.3,0.8-0.6,1.6-0.8,2.4l0,0c-0.1,0.5-0.3,1-0.4,1.6c-0.1,0.6-0.2,1.2-0.3,1.8c0,0.2,0,0.5,0,0.7c0,0.2,0,0.4,0.1,0.6l0,0.2
					c0.3,0,0.5,0,0.8,0c0.8-0.2,1.6-0.6,2.2-1.2l0,0c0.7-0.6,1.3-1.2,2-1.9c0.7-0.8,1.4-1.6,2.1-2.4c0.7-0.9,1.4-1.8,2-2.9
					c0.7-1.1,1.4-2.2,2.1-3.4s1.4-2.4,2.1-3.6s1.4-2.5,2.1-3.8c1-1.9,2-4,3-6.2s2-4.5,3-6.9c0-0.1,0-0.2,0.1-0.3
					c0.3-5.1,0.8-10.5,1.2-16.2c0.5-5.7,1.2-11.6,2.1-17.8c0.5-3.8,1.1-7.2,1.7-10.2c0.6-3,1.2-5.7,1.9-8.2l0,0
					c0-0.1,0.1-0.1,0.1-0.2c0-0.1,0-0.1,0.1-0.2l0,0c0.2-0.5,0.3-1.1,0.5-1.6c0.2-0.5,0.4-1,0.6-1.5l0,0c0.1-0.4,0.3-0.7,0.4-1
					c0.2-0.3,0.3-0.6,0.4-0.7c0.2-0.3,0.4-0.5,0.6-0.7c0.2-0.2,0.5-0.5,0.8-0.7l0,0.1c0.2-0.2,0.5-0.3,0.7-0.4
					c0.3-0.1,0.6-0.2,1-0.2l0-0.1c0.4,0,0.8,0.1,1.1,0.2c0.3,0.2,0.6,0.4,0.9,0.6C49.1,7,49.6,7.6,50,8.3c0.4,0.6,0.7,1.3,0.9,2
					c0.2,0.6,0.3,1.2,0.5,1.9c0.1,0.7,0.2,1.3,0.3,1.9c0.1,1.3,0.1,2.6,0.1,3.9c0,1.4-0.2,2.7-0.3,4.1c-0.2,1.4-0.4,2.9-0.6,4.5
					c-0.3,1.6-0.6,3.4-0.9,5.1c-0.4,1.8-0.9,3.7-1.4,5.8c-0.5,2.1-1.1,4.3-1.8,6.7c-0.7,2.4-1.5,5-2.4,7.7s-1.9,5.7-3.1,8.9l-0.4,1
					l0,0c-0.3,0.8-0.6,1.6-0.9,2.4c-0.3,0.8-0.6,1.5-0.9,2.3c0,0.3,0,0.7-0.1,1s-0.1,0.7-0.1,1c0,0.4-0.1,0.8-0.1,1.2l-0.1,1.2
					l0,0.9c0,0.4,0,0.7-0.1,1.1c-0.1,1.8-0.2,3.4-0.2,5c-0.1,1.6-0.1,3.2-0.1,4.8c0,0.8,0,1.6,0,2.4c0,0.8,0.1,1.6,0.1,2.5
					c0,0.1,0,0.1,0,0.2c0,0,0,0.1,0,0.1c0,0.8,0.1,1.5,0.1,2.3c0.1,0.8,0.2,1.6,0.3,2.3c0.5-0.2,1-0.5,1.5-0.9
					c0.5-0.3,1.1-0.7,1.6-1c1.1-0.7,2.1-1.3,3-2c1-0.6,1.9-1.3,2.8-2c1.8-1.3,3.4-2.5,4.9-3.7c1.5-1.2,2.9-2.3,4.2-3.3
					c2.6-2.1,4.8-3.8,6.5-5.3l4.5-3.8l3-2.5c0.8-0.7,1.5-1.3,2.1-1.8l1.8-1.5l1.8-1.5c0.5-0.5,1.1-0.8,1.7-1.2
					c0.5-0.2,1.1-0.4,1.6-0.6C80.8,61.1,81.6,61.3,82.1,62L82.1,62z M41.2,44.3c-0.1,0.8-0.2,1.4-0.3,1.9c-0.1,0.4-0.1,0.8-0.1,1
					c0,0.2,0,0.4-0.1,0.5c0,0.1,0,0.2,0,0.4c0,0.2,0,0.4-0.1,0.7c0,0.3-0.1,0.8-0.1,1.4c1.5-4.6,2.8-9,3.8-13s1.8-7.5,2.4-10.6
					c0.2-1.7,0.4-3.5,0.6-5.3c0.1-1.7,0.2-3.3,0.2-5c0-1.3-0.2-2.6-0.5-3.9c-0.1-0.4-0.2-0.6-0.3-0.8c-0.1-0.2-0.1,0.1,0,0.6
					l-0.8,2.9c-0.3,1.2-0.6,2.4-0.8,3.6c-0.2,1.2-0.5,2.5-0.7,3.9c-0.5,2.6-1,5.8-1.5,9.6C42.3,35.9,41.7,40,41.2,44.3"/>
				<path class="st1" d="M11,85.8c0,0,2.2-4.9,5-6.2c2.2-1,4.4-0.8,5.8,1c1.4,1.9,2.2,4.1,0.7,5.4c-1.5,1.3-1.8-2.4-3.3-2.6
					c-1.1-0.2-3.9,5.3-3.9,5.3L11,85.8z"/>
			</g>
		</g>
	</g>
</g>
<g>
	<g>
		<polygon class="st2" points="136.8,103.9 136.8,99.1 150.2,60.3 137.7,60.3 137.7,55.5 157,55.5 157,58.4 142.9,99.1 157,99.1 
			157,103.9 		"/>
		<path class="st2" d="M159.2,103.9l9.7-48.4h6.1l9.7,48.4h-6l-2.1-12.2h-9.2l-2.2,12.2H159.2z M168.2,86.9h7.6L172,65L168.2,86.9z"
			/>
		<polygon class="st2" points="202.3,103.9 202.3,55.5 208.6,55.5 208.6,78.3 219.1,55.5 225,55.5 216,76.8 226.5,103.9 
			220.3,103.9 211.1,79.9 208.6,84.8 208.6,103.9 		"/>
		<path class="st2" d="M227.6,103.9l9.8-48.4h6.1l9.7,48.4h-6l-2.1-12.2h-9.3l-2.2,12.2H227.6z M236.7,86.9h7.6L240.5,65L236.7,86.9
			z"/>
		<path class="st2" d="M257.9,103.9V55.5h9.2c4.6,0,8,1,10.2,3c2.2,2,3.2,5.3,3.2,9.8c0,6.2-1.9,10-5.6,11.3l6.5,24.3h-6.2l-6-22.7
			h-4.9v22.7L257.9,103.9z M264.2,76.3h2.4c2.8,0,4.8-0.6,5.9-1.7s1.8-3.3,1.8-6.3c0-3-0.5-5-1.5-6.2c-1-1.2-2.9-1.8-5.8-1.8h-2.8
			V76.3z"/>
		<rect x="287.4" y="55.5" class="st2" width="6.2" height="48.4"/>
		<path class="st2" d="M297.8,105v-4.9c1.1,0,2.3-0.1,3.4-0.3c0.8-0.1,1.4-0.5,2-1.1c0.5-0.6,0.9-1.4,1-2.2c0.2-1.2,0.3-2.5,0.2-3.7
			V55.5h6.4V93c0,1.8-0.1,3.6-0.5,5.4c-0.3,1.3-0.8,2.6-1.6,3.7c-0.8,1-1.8,1.8-3.1,2.2c-1.6,0.5-3.2,0.7-4.9,0.7L297.8,105z"/>
		<polygon class="st2" points="318,103.9 318,55.5 335.7,55.5 335.7,60.5 324.3,60.5 324.3,76.5 333.5,76.5 333.5,81.3 324.3,81.3 
			324.3,99.1 335.8,99.1 335.8,103.9 		"/>
		<path class="st2" d="M340.9,103.9V55.5h9.2c4.6,0,8,1,10.2,3c2.1,2,3.2,5.3,3.2,9.8c0,6.2-1.9,9.9-5.6,11.3l6.5,24.3h-6.2l-6-22.7
			h-4.9v22.7L340.9,103.9z M347.3,76.3h2.4c2.8,0,4.7-0.6,5.9-1.7c1.2-1.1,1.8-3.3,1.8-6.3c0-3-0.5-5-1.5-6.2
			c-1-1.2-2.9-1.8-5.8-1.8h-2.8V76.3z"/>
		<path class="st2" d="M387,103.6c-1.6,0.6-3.3,0.8-5.1,0.8c-1.7,0-3.4-0.2-5.1-0.8c-1.3-0.5-2.5-1.2-3.5-2.2c-1-1-1.7-2.2-2.2-3.6
			c-0.5-1.5-0.9-3-1.1-4.6c-0.2-1.9-0.3-3.8-0.3-5.7V55.5h6v32.4c0,1.4,0,2.6,0.1,3.6c0.1,1,0.2,2.1,0.5,3.1c0.2,0.9,0.5,1.7,1,2.5
			c0.5,0.6,1.1,1.2,1.8,1.5c0.8,0.4,1.8,0.6,2.7,0.6c0.9,0,1.9-0.2,2.7-0.6c0.7-0.4,1.3-0.9,1.8-1.6c0.5-0.8,0.8-1.6,1-2.5
			c0.3-1,0.4-2,0.5-3c0.1-1,0.1-2.2,0.1-3.6V55.5h6.1v32.1c0,1.9-0.1,3.8-0.3,5.7c-0.2,1.6-0.6,3.1-1.1,4.6
			c-0.5,1.3-1.2,2.5-2.2,3.6C389.4,102.4,388.2,103.1,387,103.6"/>
	</g>
	<g>
		<path class="st2" d="M142,42.6c-1.7,0.1-3.3-0.8-4-2.3c-0.8-1.5-1.2-4.1-1.2-7.7v-4.2c0-3.5,0.4-6,1.1-7.6c0.7-1.6,2.1-2.4,4-2.4
			c1.6,0,3.1,0.8,4,2.2V9.5h2v32.8h-2v-1.8C145,41.7,143.6,42.5,142,42.6 M142.3,40.9c1.3,0,2.5-0.7,3.6-2V22.2
			c-1.3-1.3-2.5-2-3.7-2c-1.2-0.1-2.3,0.6-2.7,1.7c-0.4,1.2-0.7,3.2-0.7,6.1v4.9c0,3,0.2,5,0.7,6.3C140,40.2,141.1,41,142.3,40.9"/>
		<path class="st2" d="M163.1,40.4c-0.8,1.4-2.2,2.1-4.4,2.1c-2.1,0-3.6-0.7-4.4-2.1c-0.8-1.4-1.2-3.7-1.2-6.8v-6.3
			c0-3.1,0.4-5.3,1.2-6.7c0.8-1.4,2.2-2.1,4.3-2.1c0.9,0,1.9,0.2,2.7,0.6c0.7,0.4,1.3,1,1.7,1.7c0.4,0.9,0.7,1.8,0.9,2.8
			c0.2,1.3,0.3,2.6,0.2,3.9v6.3C164.2,36.8,163.8,39,163.1,40.4 M157.3,40.8c0.4,0.1,0.9,0.2,1.3,0.2c0.5,0,0.9-0.1,1.3-0.2
			c0.4-0.1,0.7-0.4,1-0.7c0.3-0.3,0.5-0.6,0.6-1c0.2-0.5,0.3-1,0.4-1.4c0.1-0.6,0.1-1.2,0.2-1.8s0-1.3,0-2.1v-6.5c0-1,0-1.8-0.1-2.5
			c0-0.7-0.1-1.3-0.3-2c-0.1-0.5-0.3-1.1-0.6-1.5c-0.3-0.4-0.6-0.7-1-0.9c-1-0.4-2.2-0.4-3.2,0c-0.4,0.2-0.8,0.5-1,0.9
			c-0.3,0.5-0.5,1-0.6,1.5c-0.1,0.6-0.2,1.3-0.3,2c0,0.7-0.1,1.5-0.1,2.5v6.5c0,0.8,0,1.5,0,2.1s0.1,1.1,0.2,1.8
			c0,0.5,0.2,1,0.4,1.4c0.2,0.4,0.4,0.7,0.6,1C156.6,40.4,156.9,40.6,157.3,40.8"/>
		<polygon class="st2" points="169.4,42.2 169.4,9.4 171.5,9.4 171.5,31 179.6,18.8 181.8,18.8 176,27.8 181.5,42.2 179.5,42.2 
			174.5,29 171.5,33.4 171.5,42.2 		"/>
		<path class="st2" d="M191.7,42.5c-0.5,0-1-0.1-1.5-0.3c-0.4-0.1-0.7-0.4-1-0.7c-0.3-0.3-0.5-0.7-0.6-1.1c-0.1-0.4-0.2-0.9-0.3-1.3
			c0-0.4-0.1-1-0.1-1.6V20.2h-2.9v-1.4h2.9v-7.5h2v7.5h3.7v1.4h-3.7v17.1c-0.1,0.9,0.1,1.8,0.4,2.7c0.3,0.5,0.9,0.8,1.6,0.7
			c0.5,0,1.1-0.1,1.6-0.2v1.6C193.1,42.4,192.4,42.5,191.7,42.5"/>
		<path class="st2" d="M207.7,40.4c-0.8,1.4-2.2,2.1-4.4,2.1c-2.1,0-3.6-0.7-4.4-2.1s-1.2-3.7-1.2-6.8v-6.3c0-3.1,0.4-5.3,1.2-6.7
			c0.8-1.4,2.2-2.1,4.3-2.1c0.9,0,1.9,0.2,2.7,0.6c0.7,0.4,1.3,1,1.7,1.7c0.4,0.9,0.7,1.8,0.9,2.8c0.2,1.3,0.3,2.6,0.2,3.9v6.3
			C208.9,36.8,208.5,39,207.7,40.4 M202,40.8c0.9,0.3,1.8,0.3,2.7,0c0.4-0.1,0.7-0.4,1-0.7c0.3-0.3,0.5-0.6,0.6-1
			c0.2-0.5,0.3-1,0.4-1.4c0.1-0.6,0.1-1.2,0.2-1.8c0-0.6,0-1.3,0-2.1v-6.5c0-1,0-1.8-0.1-2.5c0-0.7-0.1-1.3-0.3-2
			c-0.1-0.5-0.3-1.1-0.6-1.5c-0.3-0.4-0.6-0.7-1-0.9c-1-0.4-2.2-0.4-3.2,0c-0.4,0.2-0.8,0.5-1,0.9c-0.3,0.5-0.5,1-0.6,1.5
			c-0.1,0.6-0.2,1.3-0.3,2c0,0.7-0.1,1.5-0.1,2.5v6.5c0,0.8,0,1.5,0,2.1c0,0.6,0.1,1.1,0.2,1.8c0.1,0.5,0.2,1,0.4,1.4
			c0.2,0.4,0.4,0.7,0.6,1C201.3,40.4,201.6,40.6,202,40.8"/>
		<path class="st2" d="M214.2,42.2V18.8h2V22c0.6-1,1.4-1.9,2.4-2.5c0.8-0.5,1.8-0.8,2.8-0.9h0.2h0.2v2.2c-0.3-0.1-0.5-0.1-0.8-0.1
			c-2.1,0-3.6,1-4.8,3v18.5H214.2z"/>
	</g>
</g>
</svg>
