<svg xmlns="http://www.w3.org/2000/svg" xmlns:xlink="http://www.w3.org/1999/xlink" viewBox="0 0 125.3 125.87"><defs><style>.cls-1{fill:url(#linear-gradient);}.cls-2{fill:url(#linear-gradient-2);}.cls-3{fill:url(#linear-gradient-3);}.cls-4{fill:url(#linear-gradient-4);}.cls-5{fill:url(#linear-gradient-5);}.cls-6{fill:url(#linear-gradient-6);}.cls-7{fill:url(#linear-gradient-7);}</style><linearGradient id="linear-gradient" y1="89.37" x2="125.3" y2="89.37" gradientUnits="userSpaceOnUse"><stop offset="0" stop-color="#760000"/><stop offset="1" stop-color="#9b0000"/></linearGradient><linearGradient id="linear-gradient-2" x1="15.05" y1="114.87" x2="34.28" y2="114.87" xlink:href="#linear-gradient"/><linearGradient id="linear-gradient-3" x1="36.95" y1="114.87" x2="45.47" y2="114.87" xlink:href="#linear-gradient"/><linearGradient id="linear-gradient-4" x1="92.7" y1="63.87" x2="111.93" y2="63.87" xlink:href="#linear-gradient"/><linearGradient id="linear-gradient-5" x1="81.51" y1="63.87" x2="90.03" y2="63.87" xlink:href="#linear-gradient"/><linearGradient id="linear-gradient-6" x1="39.2" y1="23.18" x2="85.56" y2="23.18" xlink:href="#linear-gradient"/><linearGradient id="linear-gradient-7" x1="51.41" y1="23.03" x2="73.36" y2="23.03" xlink:href="#linear-gradient"/></defs><title>box</title><g id="Layer_2" data-name="Layer 2"><g id="Layer_1-2" data-name="Layer 1"><path class="cls-1" d="M125.26,87.65l-7.05-33.32a1.85,1.85,0,0,0-1.81-1.46H8.89a1.85,1.85,0,0,0-1.81,1.46L0,87.65a1.84,1.84,0,0,0,1.42,2.18,1.72,1.72,0,0,0,.39,0h4.4V124a1.84,1.84,0,0,0,1.85,1.84H116.39a1.85,1.85,0,0,0,1.86-1.84V89.87h5.2A1.85,1.85,0,0,0,125.3,88a2.33,2.33,0,0,0,0-.38ZM9.6,55.87H60.23l-6.35,30H3.26Zm.65,34h44.8a1.85,1.85,0,0,0,1.8-1.49L60.25,72v50.87h-50Zm104,33h-50V72l3.39,16.38a1.85,1.85,0,0,0,1.8,1.49h44.81Zm-43.37-37-6.34-30h50.62l6.35,30Z"/><path class="cls-2" d="M32.28,112.87H17a1.91,1.91,0,0,0-1.72,1,2,2,0,0,0,1.75,3H32.31a1.89,1.89,0,0,0,1.72-1A2,2,0,0,0,32.28,112.87Z"/><path class="cls-3" d="M43.47,112.87H38.92a1.91,1.91,0,0,0-1.72,1,2,2,0,0,0,1.75,3H43.5a1.89,1.89,0,0,0,1.72-1A2,2,0,0,0,43.47,112.87Z"/><path class="cls-4" d="M109.93,61.87H94.67a1.91,1.91,0,0,0-1.72,1,2,2,0,0,0,1.75,3H110a1.89,1.89,0,0,0,1.72-1A2,2,0,0,0,109.93,61.87Z"/><path class="cls-5" d="M88,61.87H83.48a1.91,1.91,0,0,0-1.72,1,2,2,0,0,0,1.75,3h4.55a1.89,1.89,0,0,0,1.72-1A2,2,0,0,0,88,61.87Z"/><path class="cls-6" d="M62.38,46.36A23.18,23.18,0,1,0,39.2,23.18,23.18,23.18,0,0,0,62.38,46.36Zm0-42.64A19.46,19.46,0,1,1,42.92,23.18,19.46,19.46,0,0,1,62.38,3.72Z"/><path class="cls-7" d="M57.81,30.53a1.85,1.85,0,0,0,2.63,0h0L72.81,18.15a1.86,1.86,0,0,0-2.63-2.62l-11.06,11L54.58,22A1.86,1.86,0,1,0,52,24.67h0Z"/></g></g></svg>