<?xml version="1.0" encoding="utf-8"?>
<!-- Generator: Adobe Illustrator 23.0.6, SVG Export Plug-In . SVG Version: 6.00 Build 0)  -->
<svg version="1.1" id="Layer_1" xmlns="http://www.w3.org/2000/svg" xmlns:xlink="http://www.w3.org/1999/xlink" x="0px" y="0px"
	 viewBox="0 0 125.3 125.9" style="enable-background:new 0 0 125.3 125.9;" xml:space="preserve">
<style type="text/css">
	.st0{fill:url(#SVGID_1_);}
	.st1{fill:url(#SVGID_2_);}
	.st2{fill:#FFFFFF;}
</style>
<title>box</title>
<linearGradient id="SVGID_1_" gradientUnits="userSpaceOnUse" x1="1.3428" y1="89.5212" x2="122.6242" y2="89.5212">
	<stop  offset="0" style="stop-color:#760000"/>
	<stop  offset="1" style="stop-color:#9B0000"/>
</linearGradient>
<polygon class="st0" points="7.3,124.3 116.3,124.3 115.3,88.3 122.6,87.9 116,54.7 9,54.7 1.3,87.6 8,87.6 "/>
<linearGradient id="SVGID_2_" gradientUnits="userSpaceOnUse" x1="39.9703" y1="23.3255" x2="85.061" y2="23.3255">
	<stop  offset="0" style="stop-color:#760000"/>
	<stop  offset="1" style="stop-color:#9B0000"/>
</linearGradient>
<ellipse class="st1" cx="62.5" cy="23.3" rx="22.5" ry="22.5"/>
<g>
	<g id="Layer_1-2">
		<path class="st2" d="M125.3,87.7l-7.1-33.3c-0.2-0.9-0.9-1.5-1.8-1.5H8.9c-0.9,0-1.6,0.6-1.8,1.5L0,87.7c-0.2,1,0.4,2,1.4,2.2
			c0.1,0,0.3,0,0.4,0h4.4V124c0,1,0.8,1.8,1.8,1.8c0,0,0,0,0,0h108.3c1,0,1.9-0.8,1.9-1.8c0,0,0,0,0,0V89.9h5.2c1,0,1.9-0.8,1.9-1.8
			c0,0,0,0,0,0C125.3,87.9,125.3,87.7,125.3,87.7L125.3,87.7z M9.6,55.9h50.6l-6.3,30H3.3L9.6,55.9z M10.2,89.9H55
			c0.9,0,1.6-0.6,1.8-1.5L60.2,72v50.9h-50V89.9z M114.2,122.9h-50V72l3.4,16.4c0.2,0.9,0.9,1.5,1.8,1.5h44.8V122.9z M70.9,85.9
			l-6.3-30h50.6l6.3,30H70.9z"/>
		<path class="st2" d="M32.3,112.9H17c-0.7,0-1.4,0.4-1.7,1c-0.6,1-0.2,2.2,0.7,2.7c0.3,0.2,0.7,0.3,1,0.3h15.3c0.7,0,1.4-0.4,1.7-1
			c0.6-1,0.2-2.2-0.7-2.7C33,113,32.6,112.9,32.3,112.9z"/>
		<path class="st2" d="M43.5,112.9h-4.6c-0.7,0-1.4,0.4-1.7,1c-0.6,1-0.2,2.2,0.7,2.7c0.3,0.2,0.7,0.3,1,0.3h4.6
			c0.7,0,1.4-0.4,1.7-1c0.6-1,0.2-2.2-0.7-2.7C44.2,113,43.8,112.9,43.5,112.9z"/>
		<path class="st2" d="M109.9,61.9H94.7c-0.7,0-1.4,0.4-1.7,1c-0.6,1-0.2,2.2,0.7,2.7c0.3,0.2,0.7,0.3,1,0.3H110
			c0.7,0,1.4-0.4,1.7-1c0.6-1,0.2-2.2-0.7-2.7C110.7,62,110.3,61.9,109.9,61.9z"/>
		<path class="st2" d="M88,61.9h-4.5c-0.7,0-1.4,0.4-1.7,1c-0.6,1-0.2,2.2,0.7,2.7c0.3,0.2,0.7,0.3,1,0.3h4.6c0.7,0,1.4-0.4,1.7-1
			c0.6-1,0.2-2.2-0.7-2.7C88.7,62,88.4,61.9,88,61.9z"/>
		<path class="st2" d="M62.4,46.4c12.8,0,23.2-10.4,23.2-23.2S75.2,0,62.4,0S39.2,10.4,39.2,23.2l0,0C39.2,36,49.6,46.4,62.4,46.4z
			 M62.4,3.7c10.7,0,19.5,8.7,19.5,19.5s-8.7,19.5-19.5,19.5s-19.5-8.7-19.5-19.5S51.6,3.7,62.4,3.7C62.4,3.7,62.4,3.7,62.4,3.7z"/>
		<path class="st2" d="M57.8,30.5c0.7,0.7,1.9,0.7,2.6,0c0,0,0,0,0,0l0,0l12.4-12.4c0.7-0.8,0.6-1.9-0.2-2.6c-0.7-0.6-1.8-0.6-2.5,0
			l-11.1,11L54.6,22c-0.7-0.8-1.9-0.8-2.6-0.1c-0.8,0.7-0.8,1.9-0.1,2.6c0.1,0.1,0.1,0.1,0.2,0.2l0,0L57.8,30.5z"/>
	</g>
</g>
</svg>
