<?xml version="1.0" encoding="utf-8"?>
<!-- Generator: Adobe Illustrator 23.0.6, SVG Export Plug-In . SVG Version: 6.00 Build 0)  -->
<svg version="1.1" id="Layer_1" xmlns="http://www.w3.org/2000/svg" xmlns:xlink="http://www.w3.org/1999/xlink" x="0px" y="0px"
	 viewBox="0 0 155 165.4" style="enable-background:new 0 0 155 165.4;" xml:space="preserve">
<style type="text/css">
	.st0{fill:url(#SVGID_1_);}
	.st1{fill:#FFFFFF;}
</style>
<title>boxbuy</title>
<linearGradient id="SVGID_1_" gradientUnits="userSpaceOnUse" x1="1.9448" y1="82.1329" x2="152.7018" y2="82.1329">
	<stop  offset="0" style="stop-color:#760000"/>
	<stop  offset="1" style="stop-color:#9B0000"/>
</linearGradient>
<polygon class="st0" points="1.9,125.8 77,162.4 152.7,126.3 152,38.9 77.4,1.9 2.9,38.7 "/>
<g>
	<g id="Layer_1-2">
		<path class="st1" d="M153.6,36.5L78.6,0.2c-0.7-0.3-1.4-0.3-2.1,0L1.4,36.5C0.5,36.9,0,37.7,0,38.7v88c0,0.9,0.5,1.8,1.4,2.2
			l75.1,36.2c0.7,0.3,1.4,0.3,2.1,0l75.1-36.2c0.8-0.4,1.4-1.2,1.4-2.2v-88C155,37.7,154.5,36.9,153.6,36.5z M77.7,5.2l69.4,33.5
			L127,48.4c-0.1-0.1-0.3-0.2-0.4-0.3L57.7,14.9L77.7,5.2z M52.2,17.6l69.3,33.5L107.3,58L38,24.5L52.2,17.6z M123,56v24.8l-13,6.3
			V62.3L123,56z M150,125.1l-70,33.8V76.7l17.2-8.3c1.3-0.5,1.9-2,1.3-3.3s-2-1.9-3.3-1.3c-0.1,0-0.1,0-0.2,0.1l-17.6,8.5L70.6,69
			c-1.2-0.6-2.7-0.1-3.3,1.1s-0.1,2.7,1.1,3.3l0,0l6.6,3.2v82.3L5,125.1V42.6l53.5,25.8c0.3,0.2,0.7,0.2,1,0.2
			c1.2,0,2.2-0.9,2.4-2.1c0.1-1.1-0.4-2.1-1.4-2.5L8.1,38.7l24.1-11.6L105,62.2l0,0v29c0,0.8,0.4,1.6,1.1,2.1
			c0.4,0.2,0.8,0.4,1.3,0.4c0.3,0,0.7-0.1,1-0.2l18.2-8.8c0.8-0.4,1.4-1.2,1.4-2.1V53.3l22-10.6V125.1z"/>
		<path class="st1" d="M25.1,115.7l-11-5.3c-1.2-0.6-2.7-0.1-3.2,1.1s-0.1,2.7,1.1,3.2l11,5.3c1.2,0.6,2.7,0,3.2-1.2
			C26.8,117.7,26.3,116.3,25.1,115.7L25.1,115.7z"/>
		<path class="st1" d="M35.3,109.1L14.1,99c-1.2-0.7-2.6-0.2-3.3,0.9c-0.7,1.2-0.2,2.6,0.9,3.3c0.1,0,0.2,0.1,0.3,0.1l21.1,10.2
			c0.3,0.2,0.7,0.2,1,0.2c1.3,0,2.4-1.1,2.4-2.4C36.6,110.4,36.1,109.6,35.3,109.1L35.3,109.1z"/>
	</g>
</g>
</svg>
