<svg xmlns="http://www.w3.org/2000/svg" xmlns:xlink="http://www.w3.org/1999/xlink" viewBox="0 0 234.04 219.28"><defs><style>.cls-1{fill:none;}.cls-2{clip-path:url(#clip-path);}.cls-3{fill:#be1d1a;}.cls-4{fill:#3c3c3b;}</style><clipPath id="clip-path" transform="translate(0 -0.03)"><rect class="cls-1" width="234.04" height="219.31"/></clipPath></defs><title>Asset 22</title><g id="Layer_2" data-name="Layer 2"><g id="Layer_1-2" data-name="Layer 1"><g class="cls-2"><path class="cls-3" d="M227,48.45a5,5,0,0,1,1.84-1.32,3.94,3.94,0,0,1,2.1-.24,3.28,3.28,0,0,1,1.77.88,3.66,3.66,0,0,1,1.08,3A5.25,5.25,0,0,1,232.28,54a.28.28,0,0,1-.11.1l-.11.1a1,1,0,0,1-.21.21c-.09.08-.14.1-.16.06a9.57,9.57,0,0,0-.85.82c-.36.39-1,1-1.88,1.84s-1.84,1.77-3.12,3S223,63.05,221,65.07q-1.78,1.92-4.12,4.29T211.8,74.6c-.54.54-1.08,1.08-1.61,1.64l-1.63,1.7c-.93.94-1.89,1.93-2.87,3s-2,2.16-3.05,3.31l-1.86,2,0,0q-.78.86-1.62,1.74l-1.66,1.74c-1.07,1.12-2.17,2.25-3.34,3.42s-2.37,2.34-3.67,3.54-2.82,2.37-4.33,3.56a27.93,27.93,0,0,1-5.35,3.28,21.12,21.12,0,0,1-2.18.81,9.69,9.69,0,0,1-2.36.36,12.77,12.77,0,0,1-1.63-.22,7.62,7.62,0,0,1-1.58-.55,6.58,6.58,0,0,1-2.42-1.94V102a8.13,8.13,0,0,1-1.25-2c-.25-.63-.48-1.24-.67-1.82s-.22-1-.27-1.17-.07-.42-.1-.62a.2.2,0,0,1,0-.11.22.22,0,0,0,0-.12l-.09-1a36.63,36.63,0,0,1-.2-4.89c.06-1.34.15-2.68.26-4,.06-.68.1-1.28.14-1.79s.08-1,.12-1.6.11-1.19.19-1.9.18-1.62.32-2.71c-1,.71-2,1.38-2.95,2s-2.08,1.33-3.27,2.08a95.83,95.83,0,0,1-10,5.42q-4.68,2.19-8.78,3.75T136.78,94c-2.17.59-4.1,1-5.77,1.35-3,.54-5.27.87-7,1l-3.5.24c-.06,0-.11,0-.14,0a.08.08,0,0,0-.08,0,.06.06,0,0,1-.08,0,4.89,4.89,0,0,1-3.4-1.29,3.72,3.72,0,0,1-1.33-2.87,3.31,3.31,0,0,1,1.35-2.5,4.67,4.67,0,0,1,2.93-1l-.1,0c3.81-.24,6.37-.46,7.7-.66s1.35,0,.08.5c1.27-.15,2.9-.41,4.9-.78s4.3-.91,6.87-1.64c1-.29,2-.61,3.13-1s2.24-.75,3.35-1.19c1.95-.73,4.17-1.69,6.66-2.86s5.05-2.53,7.67-4.06q2.94-1.81,5.42-3.37T169.68,71l.28-.17a1.06,1.06,0,0,0,.36-.33.45.45,0,0,0,.17-.09c.07,0,.12-.09.16-.09s-.07,0,0-.06l.06-.14q.15-.06.54-.27a9.21,9.21,0,0,0,.81-.49c.27-.2.55-.37.8-.52a4.94,4.94,0,0,0,.5-.35l2,3.19a1.17,1.17,0,0,1,0,.45c0,.27-.08.55-.13.87s-.11.59-.15.86a1.46,1.46,0,0,0,0,.45l0,.38a4.32,4.32,0,0,1-.05.62,2.86,2.86,0,0,0-.09.55l0-.08a1.42,1.42,0,0,1,0,.43,2.14,2.14,0,0,0-.06.55,11.76,11.76,0,0,0-.14,1.17,7.5,7.5,0,0,1-.13,1l0-.07q-.27,3.75-.35,6.62t0,5.25l0,0c.06.67.12,1.35.19,2s.17,1.41.3,2.18a7.55,7.55,0,0,0,.2,1,6.79,6.79,0,0,0,.22.72,2.25,2.25,0,0,0,.59.95c.13.13.38.13.77,0a6.12,6.12,0,0,0,1.36-.58,21.87,21.87,0,0,0,3-1.52,34.86,34.86,0,0,0,3.06-2.06c1.2-.91,2.49-1.95,3.85-3.08s2.58-2.2,3.65-3.19l.92-.81c.29-.26.58-.54.89-.87a10,10,0,0,1,1-.89,11.36,11.36,0,0,0,.86-.79,2.61,2.61,0,0,1,.34-.33,1.73,1.73,0,0,0,.35-.31c.18-.15.34-.3.48-.43l.43-.41c.7-.73,1.36-1.4,2-2s1.27-1.3,1.9-2l0,0c.36-.38.72-.75,1.09-1.12l1.14-1.16-.05,0c.36-.38.76-.8,1.22-1.26l1.26-1.29Q212.16,66,216.32,61.2T222.41,54c.56-.66,1-1.23,1.41-1.72l1-1.25a1,1,0,0,0,.13-.17,1.19,1.19,0,0,1,.15-.18l0,.07c.32-.41.61-.79.91-1.15l1-1.17Z" transform="translate(0 -0.03)"/><path class="cls-3" d="M121.89,89.89a3,3,0,0,1,.54,1.82A6.15,6.15,0,0,1,122,94a13,13,0,0,1-1.41,2.57,12.68,12.68,0,0,1-2.25,2.47l-.54.43a3.77,3.77,0,0,0-.4.39,3.28,3.28,0,0,1-.4.33l-.39.31c-.26.22-.58.46-.94.72s-.84.63-1.42,1.09-1.3,1.05-2.15,1.72l-3.12,2.52c-.63.55-1.34,1.13-2.14,1.75s-1.63,1.31-2.53,2.07c-.62.55-1.3,1.12-2,1.73s-1.47,1.18-2.23,1.77q-2.13,1.78-4.72,3.87c-1.73,1.39-3.57,2.89-5.5,4.51l-1.62,1.29c-.54.43-1.09.89-1.64,1.36l-2,1.63c-1.68,1.36-3.49,2.8-5.41,4.34s-3.93,3.13-6,4.79c-1.66,1.26-3.42,2.56-5.25,3.91s-3.73,2.68-5.7,4l-.52.35a.71.71,0,0,1-.24.13.54.54,0,0,0-.24.14l.06,0a1.46,1.46,0,0,1-.49.31,1.74,1.74,0,0,0-.5.31c-.89.61-1.75,1.18-2.59,1.69s-1.55.91-2.11,1.2l0-.09a10.89,10.89,0,0,1-1.12.52l-1,.4-.77.2-.33,0c-.26.07-.49.11-.71.15a2.66,2.66,0,0,1-.91-.09,4.22,4.22,0,0,1-1.77-.88,5.39,5.39,0,0,1-1.11-1.26l0,.06a9.89,9.89,0,0,1-1.09-2.32,21.88,21.88,0,0,1-.59-2.31l-.07-.27a.86.86,0,0,1,0-.28,2.7,2.7,0,0,0,0-.28,95.69,95.69,0,0,1-.88-9.76q-.24-5.52-.39-10.83c0-.77,0-1.47,0-2.06s0-1.09,0-1.48q-2.91,6.85-5.76,12.58t-5.72,10.61q-2.85,4.73-5.9,8.89a42.58,42.58,0,0,1-6.9,7.4,16.45,16.45,0,0,1-2.17,1.59,15.57,15.57,0,0,1-2.29,1.17,12.54,12.54,0,0,1-3,.67,8.21,8.21,0,0,1-3.25-.28l.08.06A14.26,14.26,0,0,1,8,159.23a7.28,7.28,0,0,1-1.72-1.07A8.51,8.51,0,0,1,4.1,155a11.41,11.41,0,0,1-.74-2.74,15.08,15.08,0,0,1-.15-2.53q.06-2.4.27-4c.15-1.1.32-2.16.51-3.17s.48-2,.73-2.95.49-1.86.74-2.66c.5-1.57,1.2-3.31,1.69-4.65s12.58-7.53,12.16-6.55c-.12.27-.24.57-.38.89s-.31.68-.48,1.07c-.06.11-.12.24-.2.38a3.89,3.89,0,0,0-.24.53,4.46,4.46,0,0,0-.23.53,6.25,6.25,0,0,1-.29.62,6.66,6.66,0,0,0-.35.74c-.33.67-.65,1.39-1,2.17s-.72,1.74-1.19,2.89l-.09.16a.59.59,0,0,0-.1.28.68.68,0,0,1-.1.28c-.39,1.11-.84,2.37-1.34,3.75s-.9,2.7-1.22,3.94l0,.07c-.21.78-.41,1.63-.6,2.58a22.43,22.43,0,0,0-.37,2.88c0,.39,0,.76,0,1.12a4.19,4.19,0,0,0,.13,1l.07.27a3.44,3.44,0,0,0,1.26-.11,8.35,8.35,0,0,0,3.51-2l.06,0a41.22,41.22,0,0,0,3.11-3.23q1.68-1.92,3.3-4.08t3.18-4.81c1.08-1.79,2.17-3.65,3.28-5.6s2.19-4,3.27-6,2.14-4.15,3.17-6.26c1.49-3.18,3-6.61,4.55-10.26s3.06-7.45,4.54-11.36a.94.94,0,0,1,.09-.46q.44-12.5,1.18-26.48t2.47-29.13q1.05-9.32,2.25-16.63c.79-4.86,1.68-9.37,2.64-13.53l0-.07a.59.59,0,0,0,.08-.34.62.62,0,0,1,.08-.35l.07,0c.22-.87.45-1.75.68-2.6A16.53,16.53,0,0,1,55,6.18l0,.07c.21-.59.42-1.15.65-1.69s.41-.95.56-1.24a10.63,10.63,0,0,1,.91-1.21A9.4,9.4,0,0,1,58.31,1l0,.09A5.87,5.87,0,0,1,59.43.42,4.29,4.29,0,0,1,61,.11V0a3.85,3.85,0,0,1,1.81.29,7.57,7.57,0,0,1,1.43.9,11.93,11.93,0,0,1,2.51,3,18.3,18.3,0,0,1,1.57,3.24,28.24,28.24,0,0,1,.86,3c.24,1.1.41,2.12.52,3.05A52.62,52.62,0,0,1,70,19.78c0,2.22-.12,4.45-.31,6.66s-.46,4.69-.81,7.38-.77,5.49-1.28,8.38-1.2,6.12-1.93,9.51-1.6,7.06-2.62,11-2.2,8.16-3.54,12.69S56.63,84.78,54.84,90l-.58,1.67,0-.07c-.43,1.32-.85,2.61-1.27,3.88S52.11,98,51.66,99.2c0,.53,0,1.07-.06,1.61s-.06,1.08-.06,1.61c0,.69-.07,1.35-.09,2l-.06,1.9v1.45a10,10,0,0,1-.09,1.76c-.07,2.87-.12,5.58-.13,8.15s0,5.18.07,7.87c0,1.3.08,2.58.16,3.86s.17,2.62.25,4a1.26,1.26,0,0,1,0,.28.91.91,0,0,0,0,.21c.09,1.23.2,2.47.32,3.72a30,30,0,0,0,.61,3.78c.76-.43,1.56-.92,2.41-1.49s1.72-1.14,2.61-1.77c1.69-1.16,3.29-2.28,4.81-3.38s3-2.21,4.4-3.35q4.26-3.28,7.85-6.26c2.39-2,4.62-3.82,6.66-5.56q6.21-5.24,10.35-8.92l7.15-6.35,4.72-4.27q1.89-1.72,3.32-3l2.78-2.54,2.85-2.55A13.85,13.85,0,0,1,115.19,90a13,13,0,0,1,2.59-1c1.83-.47,3.19-.19,4.09.82ZM54.3,63.26c-.16,1.34-.27,2.36-.33,3.05s-.13,1.23-.17,1.61-.06.63-.06.77,0,.34-.06.6-.06.61-.11,1.11-.11,1.26-.16,2.28Q56.83,61.22,59,51.32T62.29,34c.31-2.84.54-5.74.7-8.72a76.19,76.19,0,0,0,0-8.13,25.35,25.35,0,0,0-1-6.31c-.21-.62-.36-1-.47-1.29s-.08.11.06,1l-1.11,4.84c-.41,1.95-.78,3.9-1.1,5.87s-.66,4.08-1,6.33q-.93,6.39-2,15.67T54.3,63.26" transform="translate(0 -0.03)"/><path class="cls-3" d="M7.15,132.28s3.27-8.13,7.84-10.34c3.54-1.71,7.06-1.59,9.44,1.37s3.87,6.57,1.47,8.76-3.09-3.75-5.46-4c-1.81-.21-6.12,8.91-6.12,8.91Z" transform="translate(0 -0.03)"/><path class="cls-4" d="M115.63,165.28a6.13,6.13,0,0,1-5.94-3.42c-1.15-2.28-1.74-6.07-1.74-11.38v-6.19q0-7.74,1.62-11.29t5.92-3.54a7.42,7.42,0,0,1,5.93,3.22V116.12h3v48.6h-3v-2.64a7.26,7.26,0,0,1-5.79,3.2m.44-2.5c1.93,0,3.71-1,5.35-2.93V135q-2.79-3-5.46-3a3.87,3.87,0,0,0-4,2.57q-1,2.58-1,9v7.22c0,4.38.36,7.47,1.06,9.3a4,4,0,0,0,4,2.74" transform="translate(0 -0.03)"/><path class="cls-4" d="M146.84,162.11q-1.77,3.16-6.46,3.16c-3.12,0-5.28-1.05-6.46-3.16s-1.76-5.47-1.76-10.06v-9.38c0-4.56.59-7.91,1.78-10s3.33-3.18,6.44-3.18a8.77,8.77,0,0,1,4,.82,5.9,5.9,0,0,1,2.54,2.57,13.49,13.49,0,0,1,1.3,4.08,38.51,38.51,0,0,1,.37,5.74v9.38c0,4.59-.6,7.95-1.77,10.06m-8.48.45a5.87,5.87,0,0,0,2,.31,5.93,5.93,0,0,0,2-.31,3.11,3.11,0,0,0,1.43-1,6.47,6.47,0,0,0,.93-1.5,8.71,8.71,0,0,0,.54-2.15c.12-.9.2-1.76.23-2.6s.06-1.89.06-3.13v-9.62c0-1.51,0-2.74-.08-3.71a20.93,20.93,0,0,0-.39-2.91,6.65,6.65,0,0,0-.86-2.27,4,4,0,0,0-1.52-1.31,5.87,5.87,0,0,0-4.74,0,4,4,0,0,0-1.52,1.31,6.46,6.46,0,0,0-.85,2.27,19.53,19.53,0,0,0-.39,2.91c-.06,1-.08,2.2-.08,3.71v9.62c0,1.24,0,2.28.05,3.13s.12,1.7.24,2.6a7.55,7.55,0,0,0,.54,2.15,6.43,6.43,0,0,0,.92,1.5,3.14,3.14,0,0,0,1.44,1" transform="translate(0 -0.03)"/><polygon class="cls-4" points="156.3 164.65 156.3 116.05 159.31 116.05 159.31 148.09 171.42 129.98 174.67 129.98 166.09 143.26 174.18 164.68 171.17 164.68 163.83 145.16 159.31 151.67 159.31 164.65 156.3 164.65"/><path class="cls-4" d="M189.34,165.1a6.25,6.25,0,0,1-2.28-.38,4.21,4.21,0,0,1-1.51-1,4,4,0,0,1-.88-1.59,8.59,8.59,0,0,1-.42-2c-.06-.66-.1-1.43-.1-2.33V132.12h-4.28V130h4.28V118.93h3V130h5.55v2.11h-5.55v25.36a9.82,9.82,0,0,0,.55,4,2.36,2.36,0,0,0,2.32,1.07,14,14,0,0,0,2.4-.28v2.39a10.58,10.58,0,0,1-3.06.42" transform="translate(0 -0.03)"/><path class="cls-4" d="M213.11,162.11q-1.77,3.16-6.46,3.16c-3.12,0-5.28-1.05-6.46-3.16s-1.76-5.47-1.76-10.06v-9.38c0-4.56.59-7.91,1.78-10s3.33-3.18,6.44-3.18a8.8,8.8,0,0,1,4,.82,5.9,5.9,0,0,1,2.54,2.57,13.49,13.49,0,0,1,1.3,4.08,38.66,38.66,0,0,1,.36,5.74v9.38c0,4.59-.58,7.95-1.76,10.06m-8.49.45a6.8,6.8,0,0,0,4.06,0,3.11,3.11,0,0,0,1.43-1,6.83,6.83,0,0,0,.93-1.5,8.28,8.28,0,0,0,.54-2.15c.12-.9.2-1.76.23-2.6s.06-1.89.06-3.13v-9.62c0-1.51,0-2.74-.08-3.71a20.93,20.93,0,0,0-.39-2.91,6.65,6.65,0,0,0-.86-2.27,4,4,0,0,0-1.52-1.31,5.87,5.87,0,0,0-4.74,0,4,4,0,0,0-1.52,1.31,6.65,6.65,0,0,0-.86,2.27,20.9,20.9,0,0,0-.38,2.91c-.06,1-.08,2.2-.08,3.71v9.62c0,1.24,0,2.28.05,3.13s.12,1.7.23,2.6a8.71,8.71,0,0,0,.54,2.15,6.83,6.83,0,0,0,.93,1.5,3.16,3.16,0,0,0,1.43,1" transform="translate(0 -0.03)"/><path class="cls-4" d="M222.78,164.72V130h3v4.69A10,10,0,0,1,229.3,131a8.14,8.14,0,0,1,4.19-1.3l.26,0H234V133a3.6,3.6,0,0,0-1.21-.17q-4.59,0-7.06,4.48v27.41Z" transform="translate(0 -0.03)"/><polygon class="cls-4" points="0 218.25 0 213.86 12.12 178.82 0.75 178.82 0.75 174.44 18.23 174.44 18.23 177.08 5.45 213.86 18.26 213.86 18.26 218.25 0 218.25"/><path class="cls-4" d="M20.23,218.28,29,174.47h5.54l8.8,43.81H37.92L36,207.23H27.64l-2,11.05Zm8.16-15.41h6.89l-3.46-19.79Z" transform="translate(0 -0.03)"/><polygon class="cls-4" points="59.2 218.25 59.2 174.44 64.95 174.44 64.95 195.08 74.4 174.44 79.75 174.44 71.59 193.75 81.07 218.25 75.47 218.25 67.19 196.53 64.95 201 64.95 218.25 59.2 218.25"/><path class="cls-4" d="M82.14,218.28,91,174.47H96.5l8.8,43.81H99.83l-1.89-11.05H89.56l-2,11.05Zm8.16-15.41h6.9l-3.46-19.79Z" transform="translate(0 -0.03)"/><path class="cls-4" d="M109.48,218.28V174.47h8.29c4.18,0,7.24.9,9.19,2.72s2.93,4.78,2.93,8.89q0,8.44-5.11,10.22l5.9,22H125.1l-5.42-20.56h-4.45v20.56Zm5.75-24.94h2.16c2.51,0,4.3-.53,5.36-1.57s1.61-3,1.61-5.69-.46-4.54-1.38-5.62-2.66-1.6-5.21-1.6h-2.54Z" transform="translate(0 -0.03)"/><rect class="cls-4" x="136.19" y="174.44" width="5.65" height="43.8"/><path class="cls-4" d="M145.65,219.31v-4.39a14.37,14.37,0,0,0,3.07-.25,3.22,3.22,0,0,0,1.78-1,3.94,3.94,0,0,0,.93-2,20.72,20.72,0,0,0,.22-3.38V174.47h5.75v33.92a24.7,24.7,0,0,1-.41,4.9,8.69,8.69,0,0,1-1.42,3.35,5.68,5.68,0,0,1-2.76,2,13.26,13.26,0,0,1-4.42.63Z" transform="translate(0 -0.03)"/><polygon class="cls-4" points="163.89 218.25 163.89 174.44 179.86 174.44 179.86 178.95 169.63 178.95 169.63 193.44 177.94 193.44 177.94 197.8 169.63 197.8 169.63 213.86 179.98 213.86 179.98 218.25 163.89 218.25"/><path class="cls-4" d="M184.64,218.28V174.47h8.28c4.18,0,7.25.9,9.19,2.72S205,182,205,186.08c0,5.63-1.69,9-5.1,10.22l5.9,22h-5.57l-5.43-20.56h-4.45v20.56Zm5.74-24.94h2.17c2.5,0,4.29-.53,5.36-1.57s1.61-3,1.61-5.69-.47-4.54-1.39-5.62-2.66-1.6-5.21-1.6h-2.54Z" transform="translate(0 -0.03)"/><path class="cls-4" d="M226.28,218a13,13,0,0,1-4.58.73,13.08,13.08,0,0,1-4.59-.73,8.46,8.46,0,0,1-3.17-2,9.33,9.33,0,0,1-2-3.23,18.55,18.55,0,0,1-1-4.17,42.93,42.93,0,0,1-.27-5.14v-29h5.47V203.8c0,1.25,0,2.34.1,3.25a15.57,15.57,0,0,0,.45,2.76,7,7,0,0,0,.93,2.24,4.53,4.53,0,0,0,1.6,1.39,5.2,5.2,0,0,0,2.44.54,5.07,5.07,0,0,0,2.43-.54,4.36,4.36,0,0,0,1.59-1.41,6.9,6.9,0,0,0,.93-2.23,15.31,15.31,0,0,0,.45-2.75c.07-.91.1-2,.1-3.25V174.47h5.48v29a40.77,40.77,0,0,1-.28,5.14,18.55,18.55,0,0,1-1,4.17,9.33,9.33,0,0,1-2,3.23,8.41,8.41,0,0,1-3.16,2" transform="translate(0 -0.03)"/></g></g></g></svg>