<?xml version="1.0" encoding="utf-8"?>
<!-- Generator: Adobe Illustrator 23.0.6, SVG Export Plug-In . SVG Version: 6.00 Build 0)  -->
<svg version="1.1" id="Layer_1" xmlns="http://www.w3.org/2000/svg" xmlns:xlink="http://www.w3.org/1999/xlink" x="0px" y="0px"
	 viewBox="0 0 162 149" style="enable-background:new 0 0 162 149;" xml:space="preserve">
<style type="text/css">
	.st0{fill:url(#SVGID_1_);}
	.st1{fill:#FFFFFF;}
</style>
<title>exambuy</title>
<linearGradient id="SVGID_1_" gradientUnits="userSpaceOnUse" x1="1.1681" y1="74.8319" x2="159.5129" y2="74.8319">
	<stop  offset="0" style="stop-color:#760000"/>
	<stop  offset="1" style="stop-color:#9B0000"/>
</linearGradient>
<path class="st0" d="M9.2,2.3c1.6,0.3,65.7,0.9,65.7,0.9s73.2-0.3,73.7-0.3c0.5,0,9.6,4.7,9.6,4.7l0.2,35.1c0,0,0.9,53,1,54
	c0.2,1-1.2,13.5-1.6,14.3c-0.3,0.9-6.6,3.7-6.6,3.7h-41.6l-13.6-0.2l-0.5,8.9c0,0,5.2,8.9,5.4,9.4c0.2,0.5,10.8,3.3,10.8,3.3
	s4.5,2.4,4.5,3c0,0.5-0.5,5.8-1,6.3c-0.5,0.5-11.2,1.9-11.2,1.9l-36.3-0.2L48.4,147l-3.5-4.9l3.8-4.9c0,0,9.8-1,10.3-1.4
	c0.5-0.3,7.2-10.5,7.5-11.2c0.3-0.7-0.3-10.8-0.3-10.8l-59.1,0.9L1.2,98.9l0.3-39l1-27.8V13.3L9.2,2.3z"/>
<g>
	<g id="Layer_1-2">
		<path class="st1" d="M150.5,0.3H11.4C5.1,0.3,0,5.5,0,11.8c0,0,0,0,0,0v94.2c0,6.3,5.1,11.4,11.4,11.4H64v5.6
			c0,2.9-1.3,5.6-3.7,7.3l-6,4.1h-4.8c-3,0-5.5,2.5-5.5,5.5v4c0,3,2.5,5.5,5.5,5.5h63c3,0,5.5-2.5,5.5-5.5v-4c0-3-2.5-5.5-5.5-5.5
			h-4.8l-6-4.1c-2.3-1.7-3.7-4.4-3.7-7.3v-5.6h52.6c6.3,0,11.4-5.1,11.4-11.4v0V11.8C162,5.5,156.8,0.3,150.5,0.3z M113,140.1v3.4
			c0,0.4-0.4,0.8-0.8,0.8H49.8c-0.4,0-0.8-0.4-0.8-0.8v-3.4c0-0.4,0.4-0.8,0.8-0.8h62.4C112.6,139.3,113,139.7,113,140.1z
			 M99.8,135.3H63.2c3.7-2.5,5.9-6.7,5.8-11.1v-6.9h25v6.9C93.9,128.7,96.1,132.9,99.8,135.3z M150.3,112.3H11.7
			c-3.7,0-6.7-3-6.7-6.7c0,0,0,0,0,0V12.1c0-3.7,3-6.7,6.7-6.7c0,0,0,0,0,0h138.6c3.7,0,6.7,3,6.7,6.7c0,0,0,0,0,0v93.6
			C157,109.3,154,112.3,150.3,112.3C150.3,112.3,150.3,112.3,150.3,112.3z"/>
		<path class="st1" d="M148.1,10.3H13.7c-2,0-3.7,1.6-3.7,3.7v89.7c0,2,1.6,3.7,3.7,3.7c0,0,0,0,0,0h135.7c1.5,0,2.7-1.2,2.7-2.7
			V64.1c0-0.6-0.3-1.1-0.7-1.5c-2.1-1.4-4.3-0.1-4.3,1.7v38H15v-76h132v25.8c-0.1,1.4,1,2.5,2.4,2.6c1.4,0.1,2.5-1,2.6-2.4V13.9
			C151.9,11.9,150.2,10.3,148.1,10.3z M24,22.3h-9v-7h9V22.3z M147,22.3H29v-7h118V22.3z"/>
		<path class="st1" d="M50.4,32.3c-2.7-2.6-6.9-2.6-9.6,0l-2.4,2.5l0,0c-2.6-2.6-6.9-2.6-9.6,0s-2.6,6.9,0,9.6l4.8,4.8
			c2.7,2.6,6.9,2.6,9.6,0l7.2-7.2C53.1,39.3,53.1,35,50.4,32.3L50.4,32.3z M47.1,38.6l-7.2,7.2c-0.8,0.8-2.1,0.8-2.9,0c0,0,0,0,0,0
			l0,0l-4.8-4.8c-0.8-0.8-0.7-2.1,0.1-2.9c0.8-0.7,2-0.7,2.8,0l1.7,1.7c0.9,0.9,2.4,0.9,3.3,0l4.1-4.1c0.8-0.8,2.1-0.8,2.9,0
			C47.9,36.5,47.9,37.8,47.1,38.6z"/>
		<path class="st1" d="M50.4,55.7c-2.7-2.6-6.9-2.6-9.6,0l-2.4,2.4l0,0c-2.7-2.6-6.9-2.6-9.6,0s-2.6,6.9,0,9.6l0,0l4.8,4.8
			c2.7,2.6,6.9,2.6,9.6,0l7.2-7.2C53.1,62.6,53.1,58.3,50.4,55.7L50.4,55.7z M47.1,61.9l-7.2,7.2c-0.8,0.8-2.1,0.8-2.9,0l0,0
			l-4.8-4.8c-0.8-0.8-0.8-2.1,0-2.9c0.8-0.8,2.1-0.8,2.9,0l1.7,1.7c0.9,0.9,2.4,0.9,3.3,0l4.1-4.1c0.8-0.8,2.1-0.9,2.9-0.1
			c0.8,0.8,0.9,2.1,0.1,2.9C47.2,61.9,47.1,61.9,47.1,61.9z"/>
		<path class="st1" d="M40.8,78.9l-2.4,2.4l0,0c-2.6-2.6-6.9-2.6-9.6,0c-2.6,2.6-2.6,6.9,0,9.6l4.8,4.8c2.7,2.6,6.9,2.6,9.6,0
			l7.2-7.2c2.6-2.7,2.5-7-0.2-9.6C47.6,76.4,43.5,76.4,40.8,78.9L40.8,78.9z M47.1,85.2l-7.2,7.2c-0.8,0.8-2.1,0.8-2.9,0
			c0,0,0,0,0,0l0,0l-4.8-4.8c-0.8-0.8-0.7-2.1,0.1-2.9c0.8-0.7,2-0.7,2.8,0l1.7,1.7c0.9,0.9,2.4,0.9,3.3,0l4.1-4.1
			c0.8-0.8,2.1-0.8,2.9,0C47.9,83.1,47.9,84.4,47.1,85.2z"/>
		<path class="st1" d="M129.7,57.3H64.3c-2.9,0-5.3,2.4-5.3,5.3l0,0V66c0,2.9,2.4,5.3,5.3,5.3c0,0,0,0,0,0h65.4
			c2.9,0,5.3-2.4,5.3-5.3c0,0,0,0,0,0v-3.4C135,59.7,132.6,57.3,129.7,57.3L129.7,57.3z M129.4,66.3H64.6c-0.3,0-0.6-0.3-0.6-0.6
			l0,0v-3.8c0-0.3,0.3-0.6,0.6-0.6l0,0h64.8c0.3,0,0.6,0.3,0.6,0.6v0v3.8C130,66.1,129.7,66.3,129.4,66.3L129.4,66.3z"/>
		<path class="st1" d="M129.7,80.3H64.3c-2.9,0-5.3,2.4-5.3,5.3c0,0,0,0,0,0V89c0,2.9,2.4,5.3,5.3,5.3h65.4c2.9,0,5.3-2.4,5.3-5.3
			c0,0,0,0,0,0v-3.4C135,82.7,132.6,80.3,129.7,80.3L129.7,80.3L129.7,80.3z M129.4,90.3H64.6c-0.3,0-0.6-0.3-0.6-0.6l0,0v-3.8
			c0-0.3,0.3-0.6,0.6-0.6l0,0h64.8c0.3,0,0.6,0.3,0.6,0.6l0,0v3.8C130,90.1,129.7,90.3,129.4,90.3L129.4,90.3z"/>
		<path class="st1" d="M135,38.6c0-2.9-2.4-5.3-5.3-5.3l0,0h-27.4c-1,0-1.9,0.6-2.3,1.5c-0.6,1.3,0,2.8,1.3,3.3
			c0.3,0.1,0.7,0.2,1,0.2h27.1c0.3,0,0.6,0.3,0.6,0.6v0v3.8c0,0.3-0.3,0.6-0.6,0.6l0,0H64.6c-0.3,0-0.6-0.3-0.6-0.6v0v-3.8
			c0-0.3,0.3-0.6,0.6-0.6l0,0h28.7c1,0,1.9-0.6,2.3-1.5c0.6-1.3,0-2.8-1.3-3.3c-0.3-0.1-0.7-0.2-1-0.2h-29c-2.9,0-5.3,2.4-5.3,5.3
			V42c0,2.9,2.4,5.3,5.3,5.3l0,0h65.4c2.9,0,5.3-2.4,5.3-5.3l0,0L135,38.6z"/>
	</g>
</g>
</svg>
