<svg xmlns="http://www.w3.org/2000/svg" xmlns:xlink="http://www.w3.org/1999/xlink" viewBox="0 0 253 252"><defs><style>.cls-1{fill:url(#linear-gradient);}.cls-2{fill:url(#linear-gradient-2);}.cls-3{fill:url(#linear-gradient-3);}.cls-4{fill:url(#linear-gradient-4);}.cls-5{fill:url(#linear-gradient-5);}.cls-6{fill:url(#linear-gradient-6);}.cls-7{fill:url(#linear-gradient-7);}.cls-8{fill:url(#linear-gradient-8);}.cls-9{fill:url(#linear-gradient-9);}.cls-10{fill:url(#linear-gradient-10);}.cls-11{fill:url(#linear-gradient-11);}.cls-12{fill:url(#linear-gradient-12);}.cls-13{fill:url(#linear-gradient-13);}</style><linearGradient id="linear-gradient" x1="76.96" y1="51.61" x2="103.72" y2="51.61" gradientUnits="userSpaceOnUse"><stop offset="0" stop-color="#760000"/><stop offset="1" stop-color="#9b0000"/></linearGradient><linearGradient id="linear-gradient-2" x1="76.96" y1="84.98" x2="103.72" y2="84.98" xlink:href="#linear-gradient"/><linearGradient id="linear-gradient-3" x1="76.96" y1="119.02" x2="103.72" y2="119.02" xlink:href="#linear-gradient"/><linearGradient id="linear-gradient-4" x1="0" y1="126" x2="253" y2="126" xlink:href="#linear-gradient"/><linearGradient id="linear-gradient-5" x1="111.6" y1="45.5" x2="179.28" y2="45.5" xlink:href="#linear-gradient"/><linearGradient id="linear-gradient-6" x1="111.6" y1="59.5" x2="179.28" y2="59.5" xlink:href="#linear-gradient"/><linearGradient id="linear-gradient-7" x1="111.6" y1="79.5" x2="179.28" y2="79.5" xlink:href="#linear-gradient"/><linearGradient id="linear-gradient-8" x1="111.6" y1="93.5" x2="179.28" y2="93.5" xlink:href="#linear-gradient"/><linearGradient id="linear-gradient-9" x1="111.6" y1="113.5" x2="179.28" y2="113.5" xlink:href="#linear-gradient"/><linearGradient id="linear-gradient-10" x1="111.6" y1="127.5" x2="179.28" y2="127.5" xlink:href="#linear-gradient"/><linearGradient id="linear-gradient-11" x1="76.96" y1="153.07" x2="103.72" y2="153.07" xlink:href="#linear-gradient"/><linearGradient id="linear-gradient-12" x1="111.6" y1="147.5" x2="179.28" y2="147.5" xlink:href="#linear-gradient"/><linearGradient id="linear-gradient-13" x1="111.6" y1="161.5" x2="179.28" y2="161.5" xlink:href="#linear-gradient"/></defs><title>exam</title><g id="Layer_2" data-name="Layer 2"><g id="Layer_1-2" data-name="Layer 1"><path class="cls-1" d="M102.64,43.18a3.72,3.72,0,0,0-5.24,0l-9,9-5.11-5.11a3.7,3.7,0,1,0-5.23,5.23L85.78,60A3.7,3.7,0,0,0,91,60l11.63-11.63a3.71,3.71,0,0,0,0-5.23Z"/><path class="cls-2" d="M102.64,76.55a3.72,3.72,0,0,0-5.24,0l-9,9-5.11-5.11a3.7,3.7,0,1,0-5.23,5.23l7.73,7.73a3.71,3.71,0,0,0,5.23,0l11.63-11.63a3.71,3.71,0,0,0,0-5.23Z"/><path class="cls-3" d="M102.64,110.6a3.7,3.7,0,0,0-5.24,0l-9,9-5.11-5.12a3.7,3.7,0,1,0-5.23,5.23l7.73,7.73a3.69,3.69,0,0,0,5.23,0l11.63-11.62a3.71,3.71,0,0,0,0-5.23Z"/><path class="cls-4" d="M17.05,252H236A17.19,17.19,0,0,0,253,234.71V224.65a6.62,6.62,0,0,0-6.58-6.65h-12A21.57,21.57,0,0,0,239,204.72V151.58a3.69,3.69,0,0,0-2.87-3.69,3.57,3.57,0,0,0-4.13,3.64v53.19A13.61,13.61,0,0,1,220.9,218H34.1A13.61,13.61,0,0,1,23,204.72V76.1S28.51,62.6,36,63H56v7H36.78A6.79,6.79,0,0,0,30,76.78V203.22A6.79,6.79,0,0,0,36.78,210H216.22a6.79,6.79,0,0,0,6.78-6.78V77.78A6.79,6.79,0,0,0,216.22,71H198V63h30.19A3.81,3.81,0,0,1,232,66.81v69.54a1.12,1.12,0,0,0,.28.75c3,3.25,6.72,1,6.72-2.1V75.89A20.89,20.89,0,0,0,218.11,55H198V3.81A3.82,3.82,0,0,0,194.19,0h-59.8a1.37,1.37,0,0,0-1,.38c-3.11,3-.9,6.62,2.2,6.62h52.61A2.77,2.77,0,0,1,191,9.78V180.34a2.66,2.66,0,0,1-2.66,2.66H65.66A2.66,2.66,0,0,1,63,180.34V36H81.83A10.18,10.18,0,0,0,92,25.83V7h26.13a3.69,3.69,0,0,0,3.69-2.87A3.57,3.57,0,0,0,118.19,0H88.31A3.84,3.84,0,0,0,85.7,1L57.08,28.19A3.47,3.47,0,0,0,56,30.67V55H35.89A20.89,20.89,0,0,0,15,75.89V204.73A20.79,20.79,0,0,0,19.85,218H6.58A6.62,6.62,0,0,0,0,224.65v10.06A17.19,17.19,0,0,0,17.05,252ZM85,11.91V25.22A2.77,2.77,0,0,1,82.22,28H68.91ZM66.06,190H187.94A10.06,10.06,0,0,0,198,179.94V78h18V203H38V78H56V185.83A5.89,5.89,0,0,0,66.06,190ZM95,226h64v2.84a2.22,2.22,0,0,1-2.22,2.16H97.22A2.22,2.22,0,0,1,95,228.84ZM8,226H87v3.07A9.8,9.8,0,0,0,96.63,239h59.74a9.8,9.8,0,0,0,9.63-9.93V226h80v9.21a9.72,9.72,0,0,1-9.63,9.79H17.63A9.72,9.72,0,0,1,8,235.21Z"/><path class="cls-5" d="M175.58,42H115.35a3.69,3.69,0,0,0-3.69,2.87A3.57,3.57,0,0,0,115.3,49h60.23a3.7,3.7,0,0,0,3.69-2.87A3.57,3.57,0,0,0,175.58,42Z"/><path class="cls-6" d="M175.58,56H115.35a3.69,3.69,0,0,0-3.69,2.87A3.57,3.57,0,0,0,115.3,63h60.23a3.7,3.7,0,0,0,3.69-2.87A3.57,3.57,0,0,0,175.58,56Z"/><path class="cls-7" d="M175.58,76H115.35a3.69,3.69,0,0,0-3.69,2.87A3.57,3.57,0,0,0,115.3,83h60.23a3.7,3.7,0,0,0,3.69-2.87A3.57,3.57,0,0,0,175.58,76Z"/><path class="cls-8" d="M175.58,90H115.35a3.69,3.69,0,0,0-3.69,2.87A3.57,3.57,0,0,0,115.3,97h60.23a3.7,3.7,0,0,0,3.69-2.87A3.57,3.57,0,0,0,175.58,90Z"/><path class="cls-9" d="M175.58,110H115.35a3.69,3.69,0,0,0-3.69,2.87A3.57,3.57,0,0,0,115.3,117h60.23a3.7,3.7,0,0,0,3.69-2.87A3.57,3.57,0,0,0,175.58,110Z"/><path class="cls-10" d="M175.58,124H115.35a3.69,3.69,0,0,0-3.69,2.87A3.57,3.57,0,0,0,115.3,131h60.23a3.7,3.7,0,0,0,3.69-2.87A3.57,3.57,0,0,0,175.58,124Z"/><path class="cls-11" d="M97.4,144.64l-9,9-5.11-5.11a3.7,3.7,0,1,0-5.23,5.23l7.73,7.73a3.71,3.71,0,0,0,5.23,0l11.63-11.63a3.7,3.7,0,1,0-5.24-5.23Z"/><path class="cls-12" d="M175.58,144H115.35a3.69,3.69,0,0,0-3.69,2.87A3.57,3.57,0,0,0,115.3,151h60.23a3.7,3.7,0,0,0,3.69-2.87A3.57,3.57,0,0,0,175.58,144Z"/><path class="cls-13" d="M175.58,158H115.35a3.69,3.69,0,0,0-3.69,2.87A3.57,3.57,0,0,0,115.3,165h60.23a3.7,3.7,0,0,0,3.69-2.87A3.57,3.57,0,0,0,175.58,158Z"/></g></g></svg>