<?xml version="1.0" encoding="utf-8"?>
<!-- Generator: Adobe Illustrator 23.0.6, SVG Export Plug-In . SVG Version: 6.00 Build 0)  -->
<svg version="1.1" id="Layer_1" xmlns="http://www.w3.org/2000/svg" xmlns:xlink="http://www.w3.org/1999/xlink" x="0px" y="0px"
	 viewBox="0 0 253 252" style="enable-background:new 0 0 253 252;" xml:space="preserve">
<style type="text/css">
	.st0{fill:url(#SVGID_1_);}
	.st1{fill:#FFFFFF;}
</style>
<linearGradient id="SVGID_1_" gradientUnits="userSpaceOnUse" x1="3.7896" y1="124.5309" x2="249.2357" y2="124.5309">
	<stop  offset="0" style="stop-color:#760000"/>
	<stop  offset="1" style="stop-color:#9B0000"/>
</linearGradient>
<path class="st0" d="M23.2,248.8l169.6,0.2l48.2-1.6l7.9-10l0.2-15.4l-20-0.7l3.3-9.3l4.7-22.6l0.7-32.1l0.9-3.7v-22.1l-4-62.9
	l-2.1-6.3l-16.5-2.8l-20.7-0.2l0.2-19.8l-1.4-37.3l-41,1.4L147.5,0H115L96.8,4.1L82.3,7.3L68.9,21.2c0,0-7.5,10.4-7.9,10.8
	c-0.3,0.4-1.6,18.4-1.6,18.4s0.3,8.8,0,8.8c-0.3,0-23.3-0.1-23.3-0.1l-15.4,5l-2,26.1c0,0,0.9,16.9,0.8,17.3c-0.1,0.4-1,50-1,50
	L17.6,193l3.4,18.4l7.4,10.3L6,221.3l-2.2,12.1l7.7,13.9L23.2,248.8z"/>
<title>exam</title>
<g>
	<g id="Layer_1-2">
		<path class="st1" d="M102.6,43.2c-1.5-1.4-3.8-1.4-5.2,0l-9,9l-5.1-5.1c-1.4-1.5-3.7-1.6-5.2-0.2c-1.5,1.4-1.6,3.7-0.2,5.2
			c0.1,0.1,0.1,0.1,0.2,0.2l7.7,7.7c1.4,1.4,3.8,1.4,5.2,0l11.6-11.6C104.1,46.9,104.1,44.6,102.6,43.2L102.6,43.2z"/>
		<path class="st1" d="M102.6,76.6c-1.5-1.4-3.8-1.4-5.2,0l-9,9l-5.1-5.1c-1.4-1.5-3.7-1.6-5.2-0.2s-1.6,3.7-0.2,5.2
			c0.1,0.1,0.1,0.1,0.2,0.2l7.7,7.7c1.4,1.4,3.8,1.4,5.2,0l11.6-11.6C104.1,80.3,104.1,78,102.6,76.6L102.6,76.6z"/>
		<path class="st1" d="M102.6,110.6c-1.4-1.4-3.8-1.5-5.2,0c0,0,0,0,0,0l-9,9l-5.1-5.1c-1.4-1.5-3.7-1.6-5.2-0.2s-1.6,3.7-0.2,5.2
			c0.1,0.1,0.1,0.1,0.2,0.2l7.7,7.7c1.4,1.4,3.8,1.4,5.2,0c0,0,0,0,0,0l11.6-11.6C104.1,114.4,104.1,112,102.6,110.6L102.6,110.6z"
			/>
		<path class="st1" d="M17,252H236c9.5-0.1,17.1-7.8,17-17.3v-10.1c0-3.7-2.9-6.6-6.6-6.6h-12c3-3.8,4.6-8.5,4.6-13.3v-53.1
			c0-1.8-1.2-3.3-2.9-3.7c-1.9-0.3-3.8,1-4.1,3c0,0.2,0,0.5,0,0.7v53.2c0,6.5-4.7,12.1-11.1,13.3H34.1c-6.4-1.2-11.1-6.8-11.1-13.3
			V76.1c0,0,5.5-13.5,13-13.1h20v7H36.8C33,70,30,73,30,76.8v126.4c0,3.7,3,6.8,6.8,6.8h179.4c3.7,0,6.8-3,6.8-6.8V77.8
			c0-3.7-3-6.8-6.8-6.8H198v-8h30.2c2.1,0,3.8,1.7,3.8,3.8v69.5c0,0.3,0.1,0.5,0.3,0.8c3,3.2,6.7,1,6.7-2.1V75.9
			c0-11.5-9.4-20.9-20.9-20.9l0,0H198V3.8c0-2.1-1.7-3.8-3.8-3.8h-59.8c-0.4,0-0.7,0.1-1,0.4c-3.1,3-0.9,6.6,2.2,6.6h52.6
			c1.5,0,2.8,1.2,2.8,2.7c0,0,0,0,0,0v170.6c0,1.5-1.2,2.7-2.7,2.7l0,0H65.7c-1.5,0-2.7-1.2-2.7-2.7l0,0V36h18.8
			C87.4,36,92,31.4,92,25.8V7h26.1c1.8,0,3.3-1.2,3.7-2.9c0.3-1.9-1-3.8-3-4.1c-0.2,0-0.4,0-0.7,0H88.3c-1,0-1.9,0.4-2.6,1
			L57.1,28.2c-0.7,0.6-1.1,1.5-1.1,2.5V55H35.9C24.4,55,15,64.4,15,75.9l0,0v128.8c0,4.9,1.7,9.5,4.9,13.3H6.6c-3.7,0-6.6,3-6.6,6.6
			v10.1C-0.1,244.2,7.6,251.9,17,252z M85,11.9v13.3c0,1.5-1.2,2.8-2.8,2.8c0,0,0,0,0,0H68.9L85,11.9z M66.1,190h121.9
			c5.6,0,10.1-4.5,10.1-10.1V78h18v125H38V78h18v107.8c0,3.3,2.6,5.9,5.9,5.9C63.4,191.7,65,191.1,66.1,190z M95,226h64v2.8
			c0,1.2-1,2.2-2.2,2.2H97.2c-1.2,0-2.2-1-2.2-2.2V226z M8,226h79v3.1c-0.1,5.4,4.2,9.8,9.6,9.9h59.7c5.4-0.1,9.7-4.5,9.6-9.9V226
			h80v9.2c0,5.4-4.3,9.7-9.6,9.8H17.6c-5.4,0-9.7-4.4-9.6-9.8V226z"/>
		<path class="st1" d="M175.6,42h-60.2c-1.8,0-3.3,1.2-3.7,2.9c-0.3,1.9,1,3.8,3,4.1c0.2,0,0.5,0,0.7,0h60.2c1.8,0,3.3-1.2,3.7-2.9
			c0.3-1.9-1-3.8-3-4.1C176,42,175.8,42,175.6,42z"/>
		<path class="st1" d="M175.6,56h-60.2c-1.8,0-3.3,1.2-3.7,2.9c-0.3,1.9,1,3.8,3,4.1c0.2,0,0.5,0,0.7,0h60.2c1.8,0,3.3-1.2,3.7-2.9
			c0.3-1.9-1-3.8-3-4.1C176,56,175.8,56,175.6,56z"/>
		<path class="st1" d="M175.6,76h-60.2c-1.8,0-3.3,1.2-3.7,2.9c-0.3,1.9,1,3.8,3,4.1c0.2,0,0.5,0,0.7,0h60.2c1.8,0,3.3-1.2,3.7-2.9
			c0.3-1.9-1-3.8-3-4.1C176,76,175.8,76,175.6,76z"/>
		<path class="st1" d="M175.6,90h-60.2c-1.8,0-3.3,1.2-3.7,2.9c-0.3,1.9,1,3.8,3,4.1c0.2,0,0.5,0,0.7,0h60.2c1.8,0,3.3-1.2,3.7-2.9
			c0.3-1.9-1-3.8-3-4.1C176,90,175.8,90,175.6,90z"/>
		<path class="st1" d="M175.6,110h-60.2c-1.8,0-3.3,1.2-3.7,2.9c-0.3,1.9,1,3.8,3,4.1c0.2,0,0.5,0,0.7,0h60.2c1.8,0,3.3-1.2,3.7-2.9
			c0.3-1.9-1-3.8-3-4.1C176,110,175.8,110,175.6,110z"/>
		<path class="st1" d="M175.6,124h-60.2c-1.8,0-3.3,1.2-3.7,2.9c-0.3,1.9,1,3.8,3,4.1c0.2,0,0.5,0,0.7,0h60.2c1.8,0,3.3-1.2,3.7-2.9
			c0.3-1.9-1-3.8-3-4.1C176,124,175.8,124,175.6,124z"/>
		<path class="st1" d="M97.4,144.6l-9,9l-5.1-5.1c-1.4-1.5-3.7-1.6-5.2-0.2c-1.5,1.4-1.6,3.7-0.2,5.2c0.1,0.1,0.1,0.1,0.2,0.2
			l7.7,7.7c1.4,1.4,3.8,1.4,5.2,0l11.6-11.6c1.4-1.4,1.4-3.8,0-5.2C101.2,143.2,98.9,143.2,97.4,144.6L97.4,144.6z"/>
		<path class="st1" d="M175.6,144h-60.2c-1.8,0-3.3,1.2-3.7,2.9c-0.3,1.9,1,3.8,3,4.1c0.2,0,0.5,0,0.7,0h60.2c1.8,0,3.3-1.2,3.7-2.9
			c0.3-1.9-1-3.8-3-4.1C176,144,175.8,144,175.6,144z"/>
		<path class="st1" d="M175.6,158h-60.2c-1.8,0-3.3,1.2-3.7,2.9c-0.3,1.9,1,3.8,3,4.1c0.2,0,0.5,0,0.7,0h60.2c1.8,0,3.3-1.2,3.7-2.9
			c0.3-1.9-1-3.8-3-4.1C176,158,175.8,158,175.6,158z"/>
	</g>
</g>
</svg>
