<svg xmlns="http://www.w3.org/2000/svg" xmlns:xlink="http://www.w3.org/1999/xlink" viewBox="0 0 162 149"><defs><style>.cls-1{fill:url(#linear-gradient);}.cls-2{fill:url(#linear-gradient-2);}.cls-3{fill:url(#linear-gradient-3);}.cls-4{fill:url(#linear-gradient-4);}.cls-5{fill:url(#linear-gradient-5);}.cls-6{fill:url(#linear-gradient-6);}.cls-7{fill:url(#linear-gradient-7);}.cls-8{fill:url(#linear-gradient-8);}</style><linearGradient id="linear-gradient" y1="74.5" x2="162" y2="74.5" gradientUnits="userSpaceOnUse"><stop offset="0" stop-color="#760000"/><stop offset="1" stop-color="#9b0000"/></linearGradient><linearGradient id="linear-gradient-2" x1="10" y1="58.5" x2="152" y2="58.5" xlink:href="#linear-gradient"/><linearGradient id="linear-gradient-3" x1="26.8" y1="40.45" x2="52.42" y2="40.45" xlink:href="#linear-gradient"/><linearGradient id="linear-gradient-4" x1="26.8" y1="63.73" x2="52.42" y2="63.73" xlink:href="#linear-gradient"/><linearGradient id="linear-gradient-5" x1="26.8" y1="87.02" x2="52.42" y2="87.02" xlink:href="#linear-gradient"/><linearGradient id="linear-gradient-6" x1="59" y1="64" x2="135" y2="64" xlink:href="#linear-gradient"/><linearGradient id="linear-gradient-7" x1="59" y1="87" x2="135" y2="87" xlink:href="#linear-gradient"/><linearGradient id="linear-gradient-8" x1="59" y1="40" x2="135" y2="40" xlink:href="#linear-gradient"/></defs><title>exambuy</title><g id="Layer_2" data-name="Layer 2"><g id="Layer_1-2" data-name="Layer 1"><path class="cls-1" d="M150.49,0H11.42A11.42,11.42,0,0,0,0,11.42v94.16A11.42,11.42,0,0,0,11.42,117H64v5.64a8.82,8.82,0,0,1-3.67,7.3l-6,4.06H49.5a5.5,5.5,0,0,0-5.5,5.5v4a5.5,5.5,0,0,0,5.5,5.5h63a5.5,5.5,0,0,0,5.5-5.5v-4a5.5,5.5,0,0,0-5.5-5.5h-4.85l-6-4.06a8.82,8.82,0,0,1-3.67-7.3V117h52.58A11.43,11.43,0,0,0,162,105.58V11.47A11.5,11.5,0,0,0,150.49,0ZM113,139.79v3.42a.79.79,0,0,1-.79.79H49.79a.79.79,0,0,1-.79-.79v-3.42a.79.79,0,0,1,.79-.79h62.42A.79.79,0,0,1,113,139.79ZM99.81,135H63.19A13.17,13.17,0,0,0,69,123.91V117H94v6.91A13.17,13.17,0,0,0,99.81,135Zm50.48-23H11.71A6.7,6.7,0,0,1,5,105.29V11.71A6.7,6.7,0,0,1,11.71,5H150.29A6.7,6.7,0,0,1,157,11.71v93.58A6.7,6.7,0,0,1,150.29,112Z"/><path class="cls-2" d="M148.12,10H13.66A3.66,3.66,0,0,0,10,13.66v89.68A3.66,3.66,0,0,0,13.66,107H149.32a2.68,2.68,0,0,0,2.68-2.68V63.72a1.77,1.77,0,0,0-.72-1.46C149.23,60.84,147,62.18,147,64v38H15V26H147V51.77a2.5,2.5,0,0,0,5,.2V13.58A3.74,3.74,0,0,0,148.12,10ZM24,22H15V15h9Zm123,0H29V15H147v7Z"/><path class="cls-3" d="M50.44,32a6.79,6.79,0,0,0-9.6,0L38.4,34.47h0a6.78,6.78,0,1,0-9.59,9.59l4.81,4.82a6.79,6.79,0,0,0,9.6,0l7.24-7.24a6.81,6.81,0,0,0,0-9.6ZM47.1,38.29l-7.24,7.24a2.06,2.06,0,0,1-2.92,0h0l-4.81-4.81a2.07,2.07,0,0,1,2.92-2.93l1.68,1.69a2.37,2.37,0,0,0,3.34,0l4.11-4.11a2.06,2.06,0,0,1,2.92,2.92Z"/><path class="cls-4" d="M50.44,55.32a6.79,6.79,0,0,0-9.6,0L38.4,57.76l0,0a6.78,6.78,0,0,0-9.59,9.6l4.81,4.81a6.79,6.79,0,0,0,9.6,0l7.24-7.24a6.8,6.8,0,0,0,0-9.59ZM47.1,61.58l-7.24,7.24a2.08,2.08,0,0,1-2.92,0h0L32.13,64a2.06,2.06,0,0,1,2.92-2.92l1.68,1.68a2.37,2.37,0,0,0,3.34,0l4.11-4.11a2.07,2.07,0,1,1,2.92,2.93Z"/><path class="cls-5" d="M40.84,78.6,38.4,81h0a6.78,6.78,0,0,0-9.59,9.59l4.81,4.82a6.79,6.79,0,0,0,9.6,0l7.24-7.24a6.79,6.79,0,0,0-9.6-9.6Zm6.26,6.26L39.86,92.1a2.06,2.06,0,0,1-2.92,0h0l-4.81-4.81a2.07,2.07,0,0,1,2.92-2.93l1.68,1.69a2.37,2.37,0,0,0,3.34,0l4.11-4.11a2.06,2.06,0,0,1,2.92,2.92Z"/><path class="cls-6" d="M129.7,57H64.3A5.3,5.3,0,0,0,59,62.3v3.4A5.3,5.3,0,0,0,64.3,71h65.4a5.3,5.3,0,0,0,5.3-5.3V62.3A5.3,5.3,0,0,0,129.7,57Zm-.28,9H64.58a.58.58,0,0,1-.58-.58V61.58a.58.58,0,0,1,.58-.58h64.84a.58.58,0,0,1,.58.58v3.84A.58.58,0,0,1,129.42,66Z"/><path class="cls-7" d="M129.68,80H64.3A5.3,5.3,0,0,0,59,85.3v3.4A5.3,5.3,0,0,0,64.3,94h65.4a5.3,5.3,0,0,0,5.3-5.3V85.3a5.3,5.3,0,0,0-5.3-5.3Zm-.26,10H64.58a.58.58,0,0,1-.58-.58V85.58a.58.58,0,0,1,.58-.58h64.84a.58.58,0,0,1,.58.58v3.84A.58.58,0,0,1,129.42,90Z"/><path class="cls-8" d="M135,38.3a5.3,5.3,0,0,0-5.3-5.3H102.28A2.45,2.45,0,0,0,100,34.46,2.51,2.51,0,0,0,102.29,38h27.13a.58.58,0,0,1,.58.58v3.84a.58.58,0,0,1-.58.58H64.58a.58.58,0,0,1-.58-.58V38.58a.58.58,0,0,1,.58-.58H93.27a2.45,2.45,0,0,0,2.29-1.46A2.52,2.52,0,0,0,93.27,33h-29A5.3,5.3,0,0,0,59,38.3v3.4A5.3,5.3,0,0,0,64.3,47h65.4a5.3,5.3,0,0,0,5.3-5.3Z"/></g></g></svg>