<?xml version="1.0" encoding="utf-8"?>
<!-- Generator: Adobe Illustrator 22.1.0, SVG Export Plug-In . SVG Version: 6.00 Build 0)  -->
<svg version="1.1" id="Layer_1" xmlns="http://www.w3.org/2000/svg" xmlns:xlink="http://www.w3.org/1999/xlink" x="0px" y="0px"
	 viewBox="0 0 512 512" style="enable-background:new 0 0 512 512;" xml:space="preserve">
<style type="text/css">
	.st0{fill:#12304C;}
	.st1{fill:#830000;}
</style>
<path class="st0" d="M391.8,473.8H142.2c-4.2,0-7.6-3.4-7.6-7.6V45.8c0-4.2,3.4-7.6,7.6-7.6h249.5c4.2,0,7.6,3.4,7.6,7.6v167
	c0,4.2-3.4,7.6-7.6,7.6c-4.2,0-7.6-3.4-7.6-7.6l0,0V53.4H149.8v405.3h234.4V299.2c0-4.2,3.4-7.6,7.6-7.6c4.2,0,7.6,3.4,7.6,7.6v167
	C399.3,470.4,395.9,473.8,391.8,473.8z"/>
<path class="st1" d="M182,504.4L10,428V84L182,7.6V504.4z"/>
<g>
	<path class="st0" d="M36,398.9c-4.2,0-7.6-3.4-7.6-7.6V267.5c0-4.2,3.4-7.6,7.6-7.6s7.6,3.4,7.6,7.6v123.9
		C43.5,395.6,40.1,398.9,36,398.9z"/>
	<path class="st0" d="M507.3,250.7l-54.1-54.1c-3-3-7.7-3-10.7,0c-3,3-3,7.7,0,10.7l41.1,41.1H253.5c-4.2,0-7.6,3.4-7.6,7.6
		s3.4,7.6,7.6,7.6h230.2l-41.1,41.1c-3,3-3,7.7,0,10.7c3,3,7.7,3,10.7,0l0,0l54.1-54.1C510.2,258.4,510.2,253.6,507.3,250.7
		C507.3,250.7,507.3,250.7,507.3,250.7z"/>
	<path class="st0" d="M186.2,1.2c-2.1-1.4-4.9-1.6-7.2-0.6L7,77.1C4.2,78.3,2.5,81,2.5,84v344c0,3,1.8,5.7,4.5,6.9l25.9,11.5
		c3.8,1.7,8.3,0,10-3.8c1.7-3.8,0-8.3-3.8-10l-21.4-9.5V88.9l156.9-69.7v73.2c0,4.2,3.4,7.6,7.6,7.6s7.6-3.4,7.6-7.6V7.6
		C189.6,5,188.3,2.6,186.2,1.2z"/>
	<path class="st0" d="M182,194.4c-4.2,0-7.6,3.4-7.6,7.6l0,0v290.8l-97.7-43.4c-3.8-1.7-8.3,0-10,3.8c-1.7,3.8,0,8.3,3.8,10
		L179,511.3c3.8,1.7,8.3,0,10-3.8c0.4-1,0.7-2,0.7-3.1V202C189.6,197.8,186.2,194.4,182,194.4L182,194.4z"/>
	<path class="st0" d="M182,124.6c-4.2,0-7.6,3.4-7.6,7.6V162c0,4.2,3.4,7.6,7.6,7.6s7.6-3.4,7.6-7.6v-29.9
		C189.6,128,186.2,124.6,182,124.6z"/>
</g>
</svg>
