<svg xmlns="http://www.w3.org/2000/svg" xmlns:xlink="http://www.w3.org/1999/xlink" viewBox="0 0 72.82 72.82"><defs><style>.cls-1{fill:url(#linear-gradient);}.cls-2{fill:#fff;}</style><linearGradient id="linear-gradient" y1="36.41" x2="72.82" y2="36.41" gradientUnits="userSpaceOnUse"><stop offset="0" stop-color="#760000"/><stop offset="1" stop-color="#9b0000"/></linearGradient></defs><title>profile</title><g id="Layer_2" data-name="Layer 2"><g id="Layer_1-2" data-name="Layer 1"><path class="cls-1" d="M36.46,0A36.41,36.41,0,1,0,72.82,36.44,36.48,36.48,0,0,0,36.46,0ZM23.39,23.25a1.63,1.63,0,0,1,.68-1.08c.13-.09.16-.38.18-.58.1-1.23.14-2.47.29-3.69a11.42,11.42,0,0,1,1.22-4.07,6.41,6.41,0,0,1,3-2.91,3.9,3.9,0,0,0,.35-.19A11.76,11.76,0,0,1,36.42,8.5a11.62,11.62,0,0,1,7.4,2.3l.11.07C46.4,12,47.53,14.09,48,16.6c.31,1.57.43,3.19.62,4.79A2.36,2.36,0,0,0,49,22.48a3.61,3.61,0,0,1,.53,1.68,7.75,7.75,0,0,1-.84,4.3,8.35,8.35,0,0,1-1,1.22,2.05,2.05,0,0,0-.29.47,19.77,19.77,0,0,1-4.81,7.34,9.73,9.73,0,0,1-4.73,2.59,7.77,7.77,0,0,1-6-1.36,16.07,16.07,0,0,1-5.05-5.81c-.5-.91-.89-1.89-1.35-2.83a1.61,1.61,0,0,0-.34-.4,4.67,4.67,0,0,1-.75-.72A7.83,7.83,0,0,1,23.39,23.25Zm38,33.28A30.89,30.89,0,0,1,41.33,68.11c-12.08,1.69-22.08-2.31-30-11.61a.86.86,0,0,1-.22-.5,29.16,29.16,0,0,1,.68-6,6.27,6.27,0,0,1,5.41-5.19c1.56-.28,3.11-.63,4.64-1a17.59,17.59,0,0,0,6-3c.09-.08.19-.14.28-.21l.11,0c1.75,3.75,3.5,7.51,5.3,11.35.46-1.4.88-2.68,1.29-4a.4.4,0,0,0,0-.28c-.46-1.09-1-2.17-1.38-3.28a.85.85,0,0,1,.47-1,2,2,0,0,1,.93-.29c1,0,2.07,0,3.1,0a1.41,1.41,0,0,1,1.13.47.94.94,0,0,1,.19,1.08c-.35.83-.66,1.68-1,2.52a.36.36,0,0,1-.08.15c-.46.38-.24.79-.1,1.21l1.11,3.38L44.54,40.5a20,20,0,0,0,4.35,2.56,29.06,29.06,0,0,0,5.8,1.56c.72.14,1.44.32,2.16.53a5.43,5.43,0,0,1,3.68,3.43,18.35,18.35,0,0,1,1,5.12c.06.7.1,1.42.1,2.14A1.17,1.17,0,0,1,61.41,56.53Z"/><path class="cls-2" d="M33.59,51.88c.46-1.4.88-2.68,1.29-4a.42.42,0,0,0,0-.27c-.47-1.09-1-2.17-1.39-3.27a.86.86,0,0,1,.47-1,2,2,0,0,1,.93-.29c1,0,2.07,0,3.1,0a1.41,1.41,0,0,1,1.13.48,1,1,0,0,1,.19,1.09c-.35.83-.66,1.67-1,2.51a.48.48,0,0,1-.08.16c-.46.37-.24.78-.1,1.2.37,1.09.72,2.18,1.11,3.38L44.54,40.5a20,20,0,0,0,4.35,2.56,29.85,29.85,0,0,0,5.79,1.56c.73.15,1.45.32,2.16.53a5.42,5.42,0,0,1,3.69,3.43,18,18,0,0,1,1,5.12c.06.71.1,1.42.1,2.13a1.17,1.17,0,0,1-.25.7A30.89,30.89,0,0,1,41.33,68.11c-12.08,1.69-22.08-2.31-30-11.61a.86.86,0,0,1-.22-.5,29.08,29.08,0,0,1,.68-6,6.28,6.28,0,0,1,5.41-5.19c1.56-.28,3.11-.63,4.64-1a17.77,17.77,0,0,0,6-3l.28-.21s.05,0,.11,0Z"/><path class="cls-2" d="M36.42,8.5a11.68,11.68,0,0,1,7.4,2.29l.11.08C46.4,12,47.53,14.1,48,16.59c.31,1.58.43,3.2.62,4.8a2.32,2.32,0,0,0,.39,1.1,3.54,3.54,0,0,1,.53,1.66,7.75,7.75,0,0,1-.84,4.31,8.35,8.35,0,0,1-1,1.22,1.72,1.72,0,0,0-.28.47,19.92,19.92,0,0,1-4.82,7.34,9.78,9.78,0,0,1-4.73,2.59,7.77,7.77,0,0,1-6-1.37,15.89,15.89,0,0,1-5.06-5.8c-.5-.91-.88-1.89-1.34-2.83a1.33,1.33,0,0,0-.35-.4,4.53,4.53,0,0,1-.73-.72,7.78,7.78,0,0,1-1-5.71,1.63,1.63,0,0,1,.68-1.08c.13-.09.16-.37.18-.58.1-1.23.14-2.47.29-3.69a11.42,11.42,0,0,1,1.22-4.07,6.41,6.41,0,0,1,3-2.92,1.59,1.59,0,0,0,.34-.18A11.76,11.76,0,0,1,36.42,8.5Z"/></g></g></svg>