<?xml version="1.0" encoding="utf-8"?>
<!-- Generator: Adobe Illustrator 23.0.6, SVG Export Plug-In . SVG Version: 6.00 Build 0)  -->
<svg version="1.1" id="Layer_1" xmlns="http://www.w3.org/2000/svg" xmlns:xlink="http://www.w3.org/1999/xlink" x="0px" y="0px"
	 viewBox="0 0 72.8 72.8" style="enable-background:new 0 0 72.8 72.8;" xml:space="preserve">
<style type="text/css">
	.st0{fill:#FFFFFF;}
	.st1{fill:url(#SVGID_1_);}
	.st2{fill:url(#SVGID_2_);}
</style>
<title>profile</title>
<g>
	<g id="Layer_1-2">
		<path class="st0" d="M36.5,0C16.4,0,0,16.3,0,36.4s16.3,36.4,36.4,36.5c20.1,0,36.4-16.3,36.5-36.4c0,0,0,0,0,0
			C72.8,16.4,56.5,0.1,36.5,0z M23.4,23.3c0.1-0.4,0.3-0.8,0.7-1.1c0.1-0.1,0.2-0.4,0.2-0.6c0.1-1.2,0.1-2.5,0.3-3.7
			c0.1-1.4,0.6-2.8,1.2-4.1c0.6-1.3,1.7-2.3,3-2.9c0.1-0.1,0.2-0.1,0.4-0.2c2.1-1.5,4.7-2.3,7.3-2.2c2.7-0.1,5.3,0.7,7.4,2.3
			l0.1,0.1c2.5,1.1,3.6,3.2,4.1,5.7c0.3,1.6,0.4,3.2,0.6,4.8c0,0.4,0.2,0.8,0.4,1.1c0.3,0.5,0.5,1.1,0.5,1.7c0.1,1.5-0.2,3-0.8,4.3
			c-0.3,0.4-0.6,0.8-1,1.2c-0.1,0.1-0.2,0.3-0.3,0.5c-1,2.8-2.7,5.3-4.8,7.3c-1.3,1.3-2.9,2.2-4.7,2.6c-2.1,0.4-4.3-0.1-6-1.4
			c-2.1-1.5-3.9-3.5-5-5.8c-0.5-0.9-0.9-1.9-1.4-2.8c-0.1-0.2-0.2-0.3-0.3-0.4c-0.3-0.2-0.5-0.5-0.8-0.7
			C23.3,27.3,23,25.2,23.4,23.3z M61.4,56.5C56.5,62.8,49.3,67,41.3,68.1c-12.1,1.7-22.1-2.3-30-11.6c-0.1-0.1-0.2-0.3-0.2-0.5
			c0-2,0.2-4,0.7-6c0.5-2.7,2.7-4.8,5.4-5.2c1.6-0.3,3.1-0.6,4.6-1c2.2-0.6,4.2-1.6,6-3c0.1-0.1,0.2-0.1,0.3-0.2h0.1
			c1.8,3.8,3.5,7.5,5.3,11.4c0.5-1.4,0.9-2.7,1.3-4c0-0.1,0-0.2,0-0.3c-0.5-1.1-1-2.2-1.4-3.3c-0.1-0.4,0.1-0.8,0.5-1
			c0.3-0.2,0.6-0.3,0.9-0.3c1,0,2.1,0,3.1,0c0.4,0,0.8,0.1,1.1,0.5c0.3,0.3,0.4,0.7,0.2,1.1c-0.3,0.8-0.7,1.7-1,2.5
			c0,0.1,0,0.1-0.1,0.2c-0.5,0.4-0.2,0.8-0.1,1.2l1.1,3.4l5.3-11.4c1.3,1,2.8,1.9,4.3,2.6c1.9,0.7,3.8,1.2,5.8,1.6
			c0.7,0.1,1.4,0.3,2.2,0.5c1.7,0.5,3.1,1.8,3.7,3.4c0.6,1.7,0.9,3.4,1,5.1c0.1,0.7,0.1,1.4,0.1,2.1C61.6,56.1,61.6,56.3,61.4,56.5
			L61.4,56.5z"/>
		<linearGradient id="SVGID_1_" gradientUnits="userSpaceOnUse" x1="11.11" y1="54.4939" x2="61.63" y2="54.4939">
			<stop  offset="0" style="stop-color:#760000"/>
			<stop  offset="1" style="stop-color:#9B0000"/>
		</linearGradient>
		<path class="st1" d="M33.6,51.9c0.5-1.4,0.9-2.7,1.3-4c0-0.1,0-0.2,0-0.3c-0.5-1.1-1-2.2-1.4-3.3c-0.1-0.4,0.1-0.8,0.5-1
			c0.3-0.2,0.6-0.3,0.9-0.3c1,0,2.1,0,3.1,0c0.4,0,0.8,0.2,1.1,0.5c0.3,0.3,0.4,0.7,0.2,1.1c-0.3,0.8-0.7,1.7-1,2.5
			c0,0.1,0,0.1-0.1,0.2c-0.5,0.4-0.2,0.8-0.1,1.2c0.4,1.1,0.7,2.2,1.1,3.4l5.3-11.4c1.3,1,2.8,1.9,4.3,2.6c1.9,0.7,3.8,1.2,5.8,1.6
			c0.7,0.2,1.5,0.3,2.2,0.5c1.7,0.5,3.1,1.7,3.7,3.4c0.6,1.6,0.9,3.4,1,5.1c0.1,0.7,0.1,1.4,0.1,2.1c0,0.3-0.1,0.5-0.2,0.7
			c-4.9,6.3-12.1,10.5-20,11.6c-12.1,1.7-22.1-2.3-30-11.6c-0.1-0.1-0.2-0.3-0.2-0.5c0-2,0.2-4,0.7-6c0.5-2.7,2.7-4.8,5.4-5.2
			c1.6-0.3,3.1-0.6,4.6-1c2.2-0.6,4.2-1.6,6-3l0.3-0.2c0,0,0,0,0.1,0L33.6,51.9z"/>
		<linearGradient id="SVGID_2_" gradientUnits="userSpaceOnUse" x1="23.2217" y1="24.3505" x2="49.5748" y2="24.3505">
			<stop  offset="0" style="stop-color:#760000"/>
			<stop  offset="1" style="stop-color:#9B0000"/>
		</linearGradient>
		<path class="st2" d="M36.4,8.5c2.7-0.1,5.3,0.7,7.4,2.3l0.1,0.1c2.5,1.1,3.6,3.2,4.1,5.7c0.3,1.6,0.4,3.2,0.6,4.8
			c0,0.4,0.2,0.8,0.4,1.1c0.3,0.5,0.5,1.1,0.5,1.7c0.1,1.5-0.2,3-0.8,4.3c-0.3,0.4-0.6,0.8-1,1.2c-0.1,0.1-0.2,0.3-0.3,0.5
			c-1,2.8-2.7,5.3-4.8,7.3c-1.3,1.3-2.9,2.2-4.7,2.6c-2.1,0.4-4.3-0.1-6-1.4c-2.1-1.5-3.9-3.5-5.1-5.8c-0.5-0.9-0.9-1.9-1.3-2.8
			c-0.1-0.2-0.2-0.3-0.4-0.4c-0.3-0.2-0.5-0.5-0.7-0.7c-1.1-1.7-1.4-3.7-1-5.7c0.1-0.4,0.3-0.8,0.7-1.1c0.1-0.1,0.2-0.4,0.2-0.6
			c0.1-1.2,0.1-2.5,0.3-3.7c0.1-1.4,0.6-2.8,1.2-4.1c0.6-1.3,1.7-2.3,3-2.9c0.1,0,0.2-0.1,0.3-0.2C31.2,9.2,33.8,8.4,36.4,8.5z"/>
	</g>
</g>
</svg>
