<?xml version="1.0" encoding="utf-8"?>
<!-- Generator: Adobe Illustrator 23.0.6, SVG Export Plug-In . SVG Version: 6.00 Build 0)  -->
<svg version="1.1" id="Layer_1" xmlns="http://www.w3.org/2000/svg" xmlns:xlink="http://www.w3.org/1999/xlink" x="0px" y="0px"
	 viewBox="0 0 91.4 92" style="enable-background:new 0 0 91.4 92;" xml:space="preserve">
<style type="text/css">
	.st0{fill:url(#SVGID_1_);}
	.st1{fill:url(#SVGID_2_);}
	.st2{fill:#FFFFFF;}
</style>
<title>support</title>
<g>
	<linearGradient id="SVGID_1_" gradientUnits="userSpaceOnUse" x1="0.9448" y1="47.2688" x2="89.3718" y2="47.2688">
		<stop  offset="0" style="stop-color:#760000"/>
		<stop  offset="1" style="stop-color:#9B0000"/>
	</linearGradient>
	<path class="st0" d="M1.1,92.3c3.5,0,62.6-0.2,62.6-0.2l15-29.4l4.4,0.2l5.8-4.5l0.5-5.1L79.2,54l-5.9,1.2l-5.1,4.4l-5.1,10.1
		l-2.8,4.9l-0.7-10l-2.4-4.9l-6.3-4.2l-7.5,0.3l-5.1-1.4L36.9,51l4.1,0l6.1-2.6l4.4-5.8l0.2-20.1l-3-9.8l-6.8-7.9l-15-2.6L14.4,9.1
		l-6.1,14v18l2.4,5.4l5.1,3L19,51h5.2l-1,2.5l-4.5,1.9L8.5,55.9l-3.8,2.3l-3.3,4.4l-0.3,8.7l0.5,12.8L1.1,92.3z"/>
	<linearGradient id="SVGID_2_" gradientUnits="userSpaceOnUse" x1="57.3912" y1="19.7446" x2="89.7213" y2="19.7446">
		<stop  offset="0" style="stop-color:#760000"/>
		<stop  offset="1" style="stop-color:#9B0000"/>
	</linearGradient>
	<polygon class="st1" points="62.6,2.4 78.4,2.8 87.8,3.3 89.7,8 89.7,23.2 86.9,28.7 78.4,30.1 75.2,30.8 69.1,37.2 68.6,29.9 
		64.9,29.9 59.3,27.4 57.4,20.8 57.7,10.1 59.1,4.4 61.9,2.3 	"/>
	<g id="Layer_1-2">
		<path class="st2" d="M33.4,0.7C20.8-1.1,9.1,7.6,7.2,20.1C7.1,21.2,7,22.3,7,23.5v17C7,46.3,11.7,51,17.5,51H19v-3h-1.3
			c-4.2,0-7.7-3.4-7.7-7.7V23.9C9.9,14,17.1,5.4,27,3.8c10.9-1.7,21.1,5.9,22.8,16.8c0.1,1,0.2,1.9,0.2,2.9v17
			c0,4.1-3.4,7.5-7.5,7.5H41v3h1.3C48.2,51,53,46.2,53,40.3V23.9C53,12.4,44.7,2.3,33.4,0.7z"/>
		<path class="st2" d="M11.9,72.3l1.1-1.8l-2.5-1.6l-1.1,1.8C6.1,76,6.3,82.8,10,87.9V92h3v-4.6c0-0.4-0.1-0.7-0.4-1
			C9.5,82.3,9.2,76.7,11.9,72.3z"/>
		<path class="st2" d="M83.5,0H63.8C59.5,0,56,3.5,56,7.8v15.5c0,4.3,3.5,7.7,7.8,7.8H67v6.2c0,0.6,0.4,1.2,0.9,1.4
			c0.2,0.1,0.4,0.1,0.6,0.1c0.4,0,0.8-0.2,1.1-0.5l7.1-7.3h6.9c4.2-0.1,7.6-3.5,7.5-7.8V7.8C91.1,3.5,87.7,0.1,83.5,0z M88,23.4
			c0,2.5-2.1,4.6-4.6,4.6h-7.3c-0.4,0-0.8,0.2-1.1,0.5l-5,5v-4c0-0.8-0.7-1.5-1.6-1.5h-4.9c-2.5,0-4.6-2.1-4.6-4.6V8.6
			C59,6.1,61.1,4,63.6,4h19.8C85.9,4,88,6.1,88,8.6V23.4z"/>
		<rect x="64" y="8" class="st2" width="11" height="3"/>
		<rect x="78" y="8" class="st2" width="6" height="3"/>
		<rect x="64" y="14" class="st2" width="20" height="3"/>
		<rect x="64" y="20" class="st2" width="11" height="3"/>
		<path class="st2" d="M50.6,70.7l-1.1-1.8L47,70.5l1.1,1.8c2.7,4.4,2.4,10-0.7,14.1c-0.2,0.3-0.4,0.6-0.3,1V92h3v-4.1
			C53.7,82.8,53.9,76,50.6,70.7z"/>
		<path class="st2" d="M89.8,52H76.2c0,0-10.5,5-10.7,10.7L61,71v-6.3C60.8,58.7,50.1,54,50.1,54H45l0,0l0,0h-3.9
			c-1.7,0-3.1-1.4-3.1-3.1c0,0,0,0,0,0v-3.6c4.9-2.6,7.9-7.7,8-13.2V21.8c0-2.6-0.6-5.1-1.9-7.4c-0.4-0.7-1.3-1-2-0.7L15.9,26.1
			c-0.5,0.2-0.9,0.8-0.9,1.4v6.6c0.1,5.5,3.1,10.6,8,13.2v3.6c0,1.7-1.4,3.1-3.1,3.1c0,0,0,0,0,0h-9.4C4.7,54,0,58.8,0,64.6V92h3
			V64.7c0-4.2,3.4-7.7,7.6-7.7h4.9l13.8,19.4c0.3,0.4,0.7,0.6,1.2,0.6l0,0c0.5,0,0.9-0.2,1.2-0.6L46.2,57h4.1c4.2,0,7.6,3.5,7.6,7.7
			v11.8c0,0.9,0.7,1.6,1.6,1.6c0.6,0,1.1-0.3,1.4-0.8L68.2,64h8.9L62,92h3.5l15.2-28h0.2c5.8,0,10.5-4.7,10.5-10.5
			C91.3,52.7,90.7,52,89.8,52z M18,33.6v-5.1l23.2-10.9C41.7,19,42,20.5,42,22v12c0,6.6-5.4,12-12,12c-0.1,0-0.1,0-0.2,0
			C23.2,45.7,17.9,40.2,18,33.6z M30.3,72.6L25.5,66h9.7L30.3,72.6z M37.7,63H23.8l-4.3-6h0.4c3.4,0,6.1-2.7,6.1-6.1v-2.1
			c2.9,0.9,6.1,0.9,9,0v2.1c0,3.4,2.7,6.1,6.1,6.1h1.1L37.7,63z M80.7,62H68.9c0.7-3.5,3.8-6,7.3-6h11.8C87.4,59.5,84.3,62,80.7,62
			L80.7,62z"/>
	</g>
</g>
</svg>
