<?xml version="1.0" encoding="utf-8"?>
<!-- Generator: Adobe Illustrator 24.2.3, SVG Export Plug-In . SVG Version: 6.00 Build 0)  -->
<svg version="1.1" id="Layer_1" xmlns="http://www.w3.org/2000/svg" xmlns:xlink="http://www.w3.org/1999/xlink" x="0px" y="0px"
	 viewBox="0 0 135.1 134.2" style="enable-background:new 0 0 135.1 134.2;" xml:space="preserve">
<style type="text/css">
	.st0{fill:#BE1D1A;}
	.st1{clip-path:url(#SVGID_2_);}
	.st2{fill:#FFFFFF;}
</style>
<g>
	<circle class="st0" cx="67.2" cy="67.8" r="61.3"/>
	<g id="Layer_2_2_">
		<g id="Layer_1-2_1_">
			<g>
				<defs>
					
						<rect id="SVGID_1_" x="11.8" y="21.6" transform="matrix(1 -1.130603e-03 1.130603e-03 1 -9.070030e-02 8.422406e-02)" width="125.2" height="117.4"/>
				</defs>
				<clipPath id="SVGID_2_">
					<use xlink:href="#SVGID_1_"  style="overflow:visible;"/>
				</clipPath>
				<g class="st1">
					<path class="st2" d="M133.3,47.4c0.3-0.3,0.6-0.6,1-0.7c0.4-0.1,0.7-0.2,1.1-0.1c0.4,0.1,0.7,0.2,0.9,0.5
						c0.4,0.4,0.6,1,0.6,1.6c-0.1,0.7-0.3,1.3-0.8,1.7c0,0,0,0-0.1,0.1l-0.1,0.1c0,0-0.1,0.1-0.1,0.1c0,0-0.1,0.1-0.1,0
						c-0.2,0.1-0.3,0.3-0.5,0.4c-0.2,0.2-0.5,0.5-1,1s-1,0.9-1.7,1.6c-0.7,0.7-1.5,1.6-2.6,2.6c-0.6,0.7-1.4,1.5-2.2,2.3
						c-0.8,0.8-1.7,1.8-2.7,2.8c-0.3,0.3-0.6,0.6-0.9,0.9l-0.9,0.9c-0.5,0.5-1,1-1.5,1.6c-0.5,0.6-1.1,1.2-1.6,1.8l-1,1.1l0,0
						c-0.3,0.3-0.6,0.6-0.9,0.9l-0.9,0.9c-0.6,0.6-1.2,1.2-1.8,1.8c-0.6,0.6-1.3,1.3-2,1.9c-0.7,0.6-1.5,1.3-2.3,1.9
						c-0.9,0.7-1.8,1.3-2.9,1.8c-0.4,0.2-0.8,0.3-1.2,0.4c-0.4,0.1-0.8,0.2-1.3,0.2c-0.3,0-0.6-0.1-0.9-0.1
						c-0.3-0.1-0.6-0.2-0.8-0.3c-0.5-0.2-1-0.6-1.3-1l0,0c-0.3-0.3-0.5-0.7-0.7-1.1c-0.1-0.3-0.3-0.7-0.4-1
						c-0.1-0.3-0.1-0.5-0.1-0.6c0-0.1,0-0.2-0.1-0.3c0,0,0,0,0-0.1c0,0,0,0,0-0.1l0-0.5c-0.1-0.9-0.1-1.7-0.1-2.6
						c0-0.7,0.1-1.4,0.1-2.1c0-0.4,0.1-0.7,0.1-1s0-0.5,0.1-0.9c0-0.3,0.1-0.6,0.1-1s0.1-0.9,0.2-1.5c-0.5,0.4-1.1,0.7-1.6,1.1
						c-0.5,0.3-1.1,0.7-1.7,1.1c-1.7,1.1-3.5,2-5.3,2.9c-1.7,0.8-3.2,1.5-4.7,2c-1.5,0.6-2.8,1-3.9,1.3c-1.2,0.3-2.2,0.5-3.1,0.7
						c-1.6,0.3-2.8,0.5-3.7,0.5l-1.9,0.1c0,0-0.1,0-0.1,0c0,0,0,0,0,0c0,0,0,0,0,0c-0.7,0-1.3-0.2-1.8-0.7c-0.5-0.4-0.7-0.9-0.7-1.5
						c0-0.5,0.3-1,0.7-1.3c0.4-0.4,1-0.5,1.6-0.5l-0.1,0c2-0.1,3.4-0.3,4.1-0.4s0.7,0,0,0.3c0.7-0.1,1.6-0.2,2.6-0.4
						c1.1-0.2,2.3-0.5,3.7-0.9c0.5-0.2,1.1-0.3,1.7-0.5c0.6-0.2,1.2-0.4,1.8-0.6c1-0.4,2.2-0.9,3.6-1.5s2.7-1.4,4.1-2.2
						c1-0.6,2-1.2,2.9-1.8c0.9-0.6,1.6-1.1,2.3-1.5l0.1-0.1c0.1,0,0.1-0.1,0.2-0.2c0,0,0.1,0,0.1,0c0,0,0.1,0,0.1,0c0,0,0,0,0,0
						l0-0.1c0.1,0,0.1-0.1,0.3-0.1c0.1-0.1,0.3-0.2,0.4-0.3c0.1-0.1,0.3-0.2,0.4-0.3c0.1-0.1,0.2-0.1,0.3-0.2l1.1,1.7
						c0,0.1,0,0.2,0,0.2c0,0.1,0,0.3-0.1,0.5c0,0.2-0.1,0.3-0.1,0.5c0,0.1,0,0.2,0,0.2l0,0.2c0,0.1,0,0.2,0,0.3c0,0.1,0,0.2,0,0.3
						l0,0c0,0.1,0,0.2,0,0.2c0,0.1,0,0.2,0,0.3c0,0.2-0.1,0.4-0.1,0.6c0,0.2,0,0.4-0.1,0.5l0,0c-0.1,1.3-0.2,2.5-0.2,3.5
						c0,1,0,2,0,2.8l0,0c0,0.4,0.1,0.7,0.1,1.1s0.1,0.8,0.2,1.2c0,0.2,0.1,0.4,0.1,0.5c0,0.1,0.1,0.3,0.1,0.4
						c0.1,0.2,0.2,0.4,0.3,0.5c0.1,0.1,0.2,0.1,0.4,0c0.3-0.1,0.5-0.2,0.7-0.3c0.6-0.2,1.1-0.5,1.6-0.8c0.6-0.3,1.1-0.7,1.6-1.1
						c0.6-0.5,1.3-1,2.1-1.7s1.4-1.2,2-1.7l0.5-0.4c0.2-0.1,0.3-0.3,0.5-0.5c0.2-0.2,0.3-0.3,0.5-0.5c0.2-0.1,0.3-0.3,0.5-0.4
						c0.1-0.1,0.1-0.1,0.2-0.2c0.1,0,0.1-0.1,0.2-0.2c0.1-0.1,0.2-0.2,0.3-0.2l0.2-0.2c0.4-0.4,0.7-0.8,1.1-1.1s0.7-0.7,1-1.1l0,0
						c0.2-0.2,0.4-0.4,0.6-0.6l0.6-0.6l0,0c0.2-0.2,0.4-0.4,0.7-0.7l0.7-0.7c2.5-2.7,4.4-4.9,5.9-6.6c1.5-1.7,2.6-3,3.3-3.9
						c0.3-0.4,0.5-0.7,0.8-0.9l0.5-0.7c0,0,0-0.1,0.1-0.1c0,0,0.1-0.1,0.1-0.1l0,0c0.2-0.2,0.3-0.4,0.5-0.6L133.3,47.4L133.3,47.4z"
						/>
					<path class="st2" d="M77,69.7c0.2,0.3,0.3,0.6,0.3,1c0,0.4-0.1,0.8-0.2,1.2c-0.2,0.5-0.5,0.9-0.8,1.4c-0.3,0.5-0.7,0.9-1.2,1.3
						l-0.3,0.2c-0.1,0.1-0.1,0.1-0.2,0.2c-0.1,0.1-0.1,0.1-0.2,0.2l-0.2,0.2c-0.1,0.1-0.3,0.2-0.5,0.4c-0.2,0.1-0.4,0.3-0.8,0.6
						s-0.7,0.6-1.1,0.9l-1.7,1.4c-0.3,0.3-0.7,0.6-1.1,0.9c-0.4,0.3-0.9,0.7-1.4,1.1c-0.3,0.3-0.7,0.6-1.1,0.9
						c-0.4,0.3-0.8,0.6-1.2,0.9c-0.8,0.6-1.6,1.3-2.5,2.1c-0.9,0.7-1.9,1.5-2.9,2.4l-0.9,0.7c-0.3,0.2-0.6,0.5-0.9,0.7l-1.1,0.9
						c-0.9,0.7-1.9,1.5-2.9,2.3c-1,0.8-2.1,1.7-3.2,2.6c-0.9,0.7-1.8,1.4-2.8,2.1c-1,0.7-2,1.4-3,2.1l-0.3,0.2c0,0-0.1,0.1-0.1,0.1
						c0,0-0.1,0-0.1,0.1l0,0c-0.1,0.1-0.2,0.1-0.3,0.2c-0.1,0-0.2,0.1-0.3,0.2c-0.5,0.3-0.9,0.6-1.4,0.9c-0.4,0.3-0.8,0.5-1.1,0.6
						l0,0c-0.2,0.1-0.4,0.2-0.6,0.3l-0.5,0.2l-0.4,0.1l-0.2,0c-0.1,0-0.3,0.1-0.4,0.1c-0.2,0-0.3,0-0.5,0c-0.3-0.1-0.7-0.2-0.9-0.5
						c-0.2-0.2-0.4-0.4-0.6-0.7l0,0c-0.2-0.4-0.4-0.8-0.6-1.2c-0.1-0.4-0.2-0.8-0.3-1.2l0-0.1c0,0,0-0.1,0-0.1c0,0,0-0.1,0-0.1
						c-0.2-1.7-0.4-3.5-0.5-5.2c-0.1-2-0.2-3.9-0.2-5.8c0-0.4,0-0.8,0-1.1c0-0.3,0-0.6,0-0.8c-1,2.4-2.1,4.7-3.1,6.7s-2,3.9-3.1,5.7
						c-1,1.7-2.1,3.3-3.2,4.8c-1.1,1.5-2.3,2.8-3.7,4c-0.4,0.3-0.8,0.6-1.2,0.9c-0.4,0.2-0.8,0.5-1.2,0.6c-0.5,0.2-1.1,0.3-1.6,0.4
						c-0.6,0.1-1.2,0-1.7-0.1l0,0c-0.4-0.1-0.7-0.2-1-0.3c-0.3-0.1-0.6-0.3-0.9-0.6c-0.5-0.5-0.9-1-1.2-1.7c-0.2-0.5-0.3-1-0.4-1.5
						c-0.1-0.4-0.1-0.9-0.1-1.4c0-0.9,0.1-1.6,0.1-2.1c0.1-0.6,0.2-1.2,0.3-1.7s0.3-1.1,0.4-1.6c0.1-0.5,0.3-1,0.4-1.4
						c0.3-0.8,0.6-1.8,0.9-2.5c0.3-0.7,6.7-4,6.5-3.5c-0.1,0.1-0.1,0.3-0.2,0.5s-0.2,0.4-0.3,0.6c0,0.1-0.1,0.1-0.1,0.2
						c0,0.1-0.1,0.2-0.1,0.3c0,0.1-0.1,0.2-0.1,0.3c0,0.1-0.1,0.2-0.2,0.3c-0.1,0.1-0.1,0.3-0.2,0.4c-0.2,0.4-0.3,0.7-0.5,1.2
						c-0.2,0.4-0.4,0.9-0.6,1.5l0,0.1c0,0,0,0.1-0.1,0.1c0,0.1,0,0.1-0.1,0.1c-0.2,0.6-0.4,1.3-0.7,2s-0.5,1.4-0.7,2.1l0,0
						c-0.1,0.4-0.2,0.9-0.3,1.4c-0.1,0.5-0.2,1-0.2,1.5c0,0.2,0,0.4,0,0.6c0,0.2,0,0.4,0.1,0.5l0,0.1c0.2,0,0.5,0,0.7-0.1
						c0.7-0.2,1.3-0.6,1.9-1.1l0,0c0.6-0.5,1.1-1.1,1.7-1.7c0.6-0.7,1.2-1.4,1.8-2.2c0.6-0.8,1.1-1.6,1.7-2.6c0.6-1,1.2-2,1.8-3
						c0.6-1,1.2-2.1,1.7-3.2s1.1-2.2,1.7-3.4c0.8-1.7,1.6-3.5,2.4-5.5c0.8-2,1.6-4,2.4-6.1c0-0.1,0-0.2,0-0.2
						c0.2-4.5,0.4-9.2,0.6-14.2c0.3-5,0.7-10.2,1.3-15.6c0.4-3.3,0.8-6.3,1.2-8.9c0.4-2.6,0.9-5,1.4-7.2l0,0c0-0.1,0-0.1,0-0.2
						c0-0.1,0-0.1,0-0.2l0,0c0.1-0.5,0.2-0.9,0.4-1.4c0.1-0.4,0.3-0.9,0.5-1.3l0,0c0.1-0.3,0.2-0.6,0.3-0.9c0.1-0.3,0.2-0.5,0.3-0.7
						c0.1-0.2,0.3-0.4,0.5-0.6c0.2-0.2,0.4-0.4,0.6-0.6l0,0c0.2-0.1,0.4-0.3,0.6-0.4c0.3-0.1,0.6-0.2,0.8-0.2l0-0.1
						c0.3,0,0.7,0,1,0.2c0.3,0.1,0.5,0.3,0.8,0.5c0.5,0.5,1,1,1.3,1.6c0.3,0.5,0.6,1.1,0.8,1.7c0.2,0.5,0.3,1.1,0.5,1.6
						c0.1,0.6,0.2,1.1,0.3,1.6c0.1,1.1,0.2,2.2,0.2,3.4c0,1.2-0.1,2.4-0.2,3.6c-0.1,1.2-0.2,2.5-0.4,3.9c-0.2,1.4-0.4,2.9-0.7,4.5
						c-0.3,1.5-0.6,3.3-1,5.1s-0.9,3.8-1.4,5.9c-0.5,2.1-1.2,4.4-1.9,6.8c-0.7,2.4-1.5,5-2.5,7.8l-0.3,0.9l0,0
						c-0.2,0.7-0.5,1.4-0.7,2.1s-0.5,1.3-0.7,2c0,0.3,0,0.6,0,0.9c0,0.3,0,0.6,0,0.9c0,0.4,0,0.7,0,1.1l0,1l0,0.8c0,0.3,0,0.6,0,0.9
						c0,1.5-0.1,3-0.1,4.4c0,1.4,0,2.8,0,4.2c0,0.7,0,1.4,0.1,2.1c0,0.7,0.1,1.4,0.1,2.1c0,0,0,0.1,0,0.1c0,0,0,0.1,0,0.1
						c0,0.7,0.1,1.3,0.2,2c0.1,0.7,0.2,1.4,0.3,2c0.4-0.2,0.8-0.5,1.3-0.8c0.5-0.3,0.9-0.6,1.4-0.9c0.9-0.6,1.8-1.2,2.6-1.8
						c0.8-0.6,1.6-1.2,2.4-1.8c1.5-1.2,2.9-2.3,4.2-3.4c1.3-1.1,2.5-2,3.6-3c2.2-1.9,4.1-3.5,5.5-4.8l3.8-3.4l2.5-2.3
						c0.7-0.6,1.3-1.2,1.8-1.6l1.5-1.4l1.5-1.4c0.4-0.4,0.9-0.8,1.4-1.1c0.4-0.2,0.9-0.4,1.4-0.5C75.8,69,76.6,69.1,77,69.7L77,69.7
						z M40.9,55.5c-0.1,0.7-0.1,1.3-0.2,1.6c0,0.4-0.1,0.7-0.1,0.9c0,0.2,0,0.3,0,0.4c0,0.1,0,0.2,0,0.3c0,0.1,0,0.3-0.1,0.6
						c0,0.3-0.1,0.7-0.1,1.2c1.2-4.1,2.2-7.9,3-11.4c0.8-3.5,1.4-6.6,1.8-9.3c0.2-1.5,0.3-3.1,0.4-4.7c0.1-1.4,0.1-2.9,0-4.4
						c0-1.1-0.2-2.3-0.5-3.4c-0.1-0.3-0.2-0.5-0.3-0.7c-0.1-0.2,0,0.1,0,0.5l-0.6,2.6c-0.2,1-0.4,2.1-0.6,3.1s-0.4,2.2-0.5,3.4
						c-0.3,2.3-0.7,5.1-1.1,8.4C41.6,48.1,41.2,51.7,40.9,55.5"/>
					<path class="st2" d="M15.7,92.4c0,0,1.7-4.4,4.2-5.5c1.9-0.9,3.8-0.9,5.1,0.7c1.3,1.6,2.1,3.5,0.8,4.7c-1.3,1.2-1.7-2-2.9-2.1
						c-1-0.1-3.3,4.8-3.3,4.8L15.7,92.4z"/>
				</g>
			</g>
		</g>
	</g>
</g>
</svg>
