<svg xmlns="http://www.w3.org/2000/svg" xmlns:xlink="http://www.w3.org/1999/xlink" viewBox="0 0 155 165.36"><defs><style>.cls-1{fill:url(#linear-gradient);}.cls-2{fill:url(#linear-gradient-2);}.cls-3{fill:url(#linear-gradient-3);}</style><linearGradient id="linear-gradient" y1="82.68" x2="155" y2="82.68" gradientUnits="userSpaceOnUse"><stop offset="0" stop-color="#760000"/><stop offset="1" stop-color="#9b0000"/></linearGradient><linearGradient id="linear-gradient-2" x1="10.67" y1="115.25" x2="26.51" y2="115.25" xlink:href="#linear-gradient"/><linearGradient id="linear-gradient-3" x1="10.68" y1="106.22" x2="36.63" y2="106.22" xlink:href="#linear-gradient"/></defs><title>boxbuy</title><g id="Layer_2" data-name="Layer 2"><g id="Layer_1-2" data-name="Layer 1"><path class="cls-1" d="M153.63,36.49,78.55.24a2.42,2.42,0,0,0-2.1,0L1.37,36.49A2.41,2.41,0,0,0,0,38.66v88a2.41,2.41,0,0,0,1.37,2.18l75.08,36.24a2.33,2.33,0,0,0,2.1,0l75.08-36.24a2.41,2.41,0,0,0,1.37-2.18v-88A2.41,2.41,0,0,0,153.63,36.49ZM77.74,5.22l69.41,33.51L127,48.44a2.57,2.57,0,0,0-.41-.26L57.68,14.9ZM52.21,17.64,121.52,51.1,107.33,58,38.05,24.5ZM123,56V80.83l-13,6.28V62.27Zm27,69.14-70,33.8V76.66l17.25-8.33a2.5,2.5,0,1,0-2.13-4.52L77.5,72.31,70.6,69a2.5,2.5,0,1,0-2.21,4.49L75,76.66v82.28L5,125.14V42.57L58.48,68.39a2.47,2.47,0,0,0,1.05.24,2.44,2.44,0,0,0,2.41-2.08A2.47,2.47,0,0,0,60.51,64L8.15,38.71,32.21,27.1,105,62.23l0,0v29a2.43,2.43,0,0,0,1.14,2.06,2.47,2.47,0,0,0,1.29.37,2.41,2.41,0,0,0,1-.24l18.15-8.77A2.41,2.41,0,0,0,128,82.53V53.28l22-10.63v82.49Z"/><path class="cls-2" d="M25.14,115.73l-11-5.31A2.42,2.42,0,1,0,12,114.77l11,5.32a2.42,2.42,0,0,0,2.1-4.36Z"/><path class="cls-3" d="M35.27,109.14,14.15,99a2.42,2.42,0,1,0-2.1,4.35l21.11,10.2a2.47,2.47,0,0,0,1.05.24,2.42,2.42,0,0,0,1.06-4.6Z"/></g></g></svg>